# VERSE CITY lowpoly avatar part (acc_ribbon) generated
v 0.19000 1.16200 0.02000
v 0.19000 1.09800 0.02000
v 0.19000 1.15263 0.04263
v 0.20960 1.15263 0.03131
v 0.20960 1.15263 0.00869
v 0.19000 1.15263 -0.00263
v 0.17040 1.15263 0.00869
v 0.17040 1.15263 0.03131
v 0.19000 1.13000 0.05200
v 0.21771 1.13000 0.03600
v 0.21771 1.13000 0.00400
v 0.19000 1.13000 -0.01200
v 0.16229 1.13000 0.00400
v 0.16229 1.13000 0.03600
v 0.19000 1.10737 0.04263
v 0.20960 1.10737 0.03131
v 0.20960 1.10737 0.00869
v 0.19000 1.10737 -0.00263
v 0.17040 1.10737 0.00869
v 0.17040 1.10737 0.03131
v 0.19000 1.15000 0.02000
v 0.34000 1.21000 0.03000
v 0.36000 1.09000 0.03000
v 0.20000 1.10000 0.02000
v 0.19000 1.15000 0.02000
v 0.28000 1.22000 -0.10000
v 0.30000 1.10000 -0.11000
v 0.20000 1.10000 0.02000
o cloth
f 1 3 4
f 2 16 15
f 1 4 5
f 2 17 16
f 1 5 6
f 2 18 17
f 1 6 7
f 2 19 18
f 1 7 8
f 2 20 19
f 1 8 3
f 2 15 20
f 3 9 10
f 3 10 4
f 4 10 11
f 4 11 5
f 5 11 12
f 5 12 6
f 6 12 13
f 6 13 7
f 7 13 14
f 7 14 8
f 8 14 9
f 8 9 3
f 9 15 16
f 9 16 10
f 10 16 17
f 10 17 11
f 11 17 18
f 11 18 12
f 12 18 19
f 12 19 13
f 13 19 20
f 13 20 14
f 14 20 15
f 14 15 9
f 21 22 23
f 21 23 24
f 23 22 21
f 24 23 21
f 25 26 27
f 25 27 28
f 27 26 25
f 28 27 25
