# VERSE CITY lowpoly avatar part (acc_halo) generated
v 0.14800 1.33000 0.00000
v 0.13556 1.34712 0.00000
v 0.11544 1.34058 0.00000
v 0.11544 1.31942 0.00000
v 0.13556 1.31288 0.00000
v 0.13334 1.33000 0.06421
v 0.12214 1.34712 0.05882
v 0.10401 1.34058 0.05009
v 0.10401 1.31942 0.05009
v 0.12214 1.31288 0.05882
v 0.09228 1.33000 0.11571
v 0.08452 1.34712 0.10599
v 0.07197 1.34058 0.09025
v 0.07197 1.31942 0.09025
v 0.08452 1.31288 0.10599
v 0.03293 1.33000 0.14429
v 0.03017 1.34712 0.13216
v 0.02569 1.34058 0.11254
v 0.02569 1.31942 0.11254
v 0.03017 1.31288 0.13216
v -0.03293 1.33000 0.14429
v -0.03017 1.34712 0.13216
v -0.02569 1.34058 0.11254
v -0.02569 1.31942 0.11254
v -0.03017 1.31288 0.13216
v -0.09228 1.33000 0.11571
v -0.08452 1.34712 0.10599
v -0.07197 1.34058 0.09025
v -0.07197 1.31942 0.09025
v -0.08452 1.31288 0.10599
v -0.13334 1.33000 0.06421
v -0.12214 1.34712 0.05882
v -0.10401 1.34058 0.05009
v -0.10401 1.31942 0.05009
v -0.12214 1.31288 0.05882
v -0.14800 1.33000 0.00000
v -0.13556 1.34712 0.00000
v -0.11544 1.34058 0.00000
v -0.11544 1.31942 0.00000
v -0.13556 1.31288 0.00000
v -0.13334 1.33000 -0.06421
v -0.12214 1.34712 -0.05882
v -0.10401 1.34058 -0.05009
v -0.10401 1.31942 -0.05009
v -0.12214 1.31288 -0.05882
v -0.09228 1.33000 -0.11571
v -0.08452 1.34712 -0.10599
v -0.07197 1.34058 -0.09025
v -0.07197 1.31942 -0.09025
v -0.08452 1.31288 -0.10599
v -0.03293 1.33000 -0.14429
v -0.03017 1.34712 -0.13216
v -0.02569 1.34058 -0.11254
v -0.02569 1.31942 -0.11254
v -0.03017 1.31288 -0.13216
v 0.03293 1.33000 -0.14429
v 0.03017 1.34712 -0.13216
v 0.02569 1.34058 -0.11254
v 0.02569 1.31942 -0.11254
v 0.03017 1.31288 -0.13216
v 0.09228 1.33000 -0.11571
v 0.08452 1.34712 -0.10599
v 0.07197 1.34058 -0.09025
v 0.07197 1.31942 -0.09025
v 0.08452 1.31288 -0.10599
v 0.13334 1.33000 -0.06421
v 0.12214 1.34712 -0.05882
v 0.10401 1.34058 -0.05009
v 0.10401 1.31942 -0.05009
v 0.12214 1.31288 -0.05882
o glow
f 1 6 7
f 1 7 2
f 2 7 8
f 2 8 3
f 3 8 9
f 3 9 4
f 4 9 10
f 4 10 5
f 5 10 6
f 5 6 1
f 6 11 12
f 6 12 7
f 7 12 13
f 7 13 8
f 8 13 14
f 8 14 9
f 9 14 15
f 9 15 10
f 10 15 11
f 10 11 6
f 11 16 17
f 11 17 12
f 12 17 18
f 12 18 13
f 13 18 19
f 13 19 14
f 14 19 20
f 14 20 15
f 15 20 16
f 15 16 11
f 16 21 22
f 16 22 17
f 17 22 23
f 17 23 18
f 18 23 24
f 18 24 19
f 19 24 25
f 19 25 20
f 20 25 21
f 20 21 16
f 21 26 27
f 21 27 22
f 22 27 28
f 22 28 23
f 23 28 29
f 23 29 24
f 24 29 30
f 24 30 25
f 25 30 26
f 25 26 21
f 26 31 32
f 26 32 27
f 27 32 33
f 27 33 28
f 28 33 34
f 28 34 29
f 29 34 35
f 29 35 30
f 30 35 31
f 30 31 26
f 31 36 37
f 31 37 32
f 32 37 38
f 32 38 33
f 33 38 39
f 33 39 34
f 34 39 40
f 34 40 35
f 35 40 36
f 35 36 31
f 36 41 42
f 36 42 37
f 37 42 43
f 37 43 38
f 38 43 44
f 38 44 39
f 39 44 45
f 39 45 40
f 40 45 41
f 40 41 36
f 41 46 47
f 41 47 42
f 42 47 48
f 42 48 43
f 43 48 49
f 43 49 44
f 44 49 50
f 44 50 45
f 45 50 46
f 45 46 41
f 46 51 52
f 46 52 47
f 47 52 53
f 47 53 48
f 48 53 54
f 48 54 49
f 49 54 55
f 49 55 50
f 50 55 51
f 50 51 46
f 51 56 57
f 51 57 52
f 52 57 58
f 52 58 53
f 53 58 59
f 53 59 54
f 54 59 60
f 54 60 55
f 55 60 56
f 55 56 51
f 56 61 62
f 56 62 57
f 57 62 63
f 57 63 58
f 58 63 64
f 58 64 59
f 59 64 65
f 59 65 60
f 60 65 61
f 60 61 56
f 61 66 67
f 61 67 62
f 62 67 68
f 62 68 63
f 63 68 69
f 63 69 64
f 64 69 70
f 64 70 65
f 65 70 66
f 65 66 61
f 66 1 2
f 66 2 67
f 67 2 3
f 67 3 68
f 68 3 4
f 68 4 69
f 69 4 5
f 69 5 70
f 70 5 1
f 70 1 66
