# VERSE CITY lowpoly avatar part (acc_wing) generated
v -0.08000 0.62000 -0.06000
v -0.42000 0.78000 -0.16000
v -0.46000 0.55000 -0.20000
v -0.10000 0.46000 -0.08000
v -0.08000 0.56000 -0.07000
v -0.34000 0.50000 -0.17000
v -0.30000 0.33000 -0.19000
v -0.09000 0.38000 -0.09000
v 0.08000 0.62000 -0.06000
v 0.42000 0.78000 -0.16000
v 0.46000 0.55000 -0.20000
v 0.10000 0.46000 -0.08000
v 0.08000 0.56000 -0.07000
v 0.34000 0.50000 -0.17000
v 0.30000 0.33000 -0.19000
v 0.09000 0.38000 -0.09000
o glow
f 1 2 3
f 1 3 4
f 3 2 1
f 4 3 1
f 5 6 7
f 5 7 8
f 7 6 5
f 8 7 5
f 9 10 11
f 9 11 12
f 11 10 9
f 12 11 9
f 13 14 15
f 13 15 16
f 15 14 13
f 16 15 13
