# VERSE CITY lowpoly avatar part (acc_sunglasses) generated
v -0.17000 0.84000 0.24600
v -0.02000 0.84000 0.24600
v -0.02000 0.74000 0.24600
v -0.17000 0.74000 0.24600
v -0.16700 0.80400 0.24600
v -0.20000 0.80400 0.12600
v -0.20000 0.79000 0.12600
v -0.16700 0.79000 0.24600
v 0.02000 0.84000 0.24600
v 0.17000 0.84000 0.24600
v 0.17000 0.74000 0.24600
v 0.02000 0.74000 0.24600
v 0.16700 0.80400 0.24600
v 0.20000 0.80400 0.12600
v 0.20000 0.79000 0.12600
v 0.16700 0.79000 0.24600
v -0.02500 0.80400 0.24600
v 0.02500 0.80400 0.24600
v 0.02500 0.79000 0.24600
v -0.02500 0.79000 0.24600
o dark
f 1 2 3
f 1 3 4
f 3 2 1
f 4 3 1
f 5 6 7
f 5 7 8
f 7 6 5
f 8 7 5
f 9 10 11
f 9 11 12
f 11 10 9
f 12 11 9
f 13 14 15
f 13 15 16
f 15 14 13
f 16 15 13
f 17 18 19
f 17 19 20
f 19 18 17
f 20 19 17
