# VERSE CITY lowpoly avatar part (acc_glasses) generated
v -0.16700 0.84200 0.24500
v -0.02300 0.84200 0.24500
v -0.02300 0.83400 0.24500
v -0.16700 0.83400 0.24500
v -0.16700 0.74600 0.24500
v -0.02300 0.74600 0.24500
v -0.02300 0.73800 0.24500
v -0.16700 0.73800 0.24500
v -0.16700 0.84200 0.24500
v -0.15900 0.84200 0.24500
v -0.15900 0.73800 0.24500
v -0.16700 0.73800 0.24500
v -0.03100 0.84200 0.24500
v -0.02300 0.84200 0.24500
v -0.02300 0.73800 0.24500
v -0.03100 0.73800 0.24500
v -0.16700 0.80200 0.24500
v -0.20000 0.80200 0.12500
v -0.20000 0.78800 0.12500
v -0.16700 0.78800 0.24500
v 0.02300 0.84200 0.24500
v 0.16700 0.84200 0.24500
v 0.16700 0.83400 0.24500
v 0.02300 0.83400 0.24500
v 0.02300 0.74600 0.24500
v 0.16700 0.74600 0.24500
v 0.16700 0.73800 0.24500
v 0.02300 0.73800 0.24500
v 0.02300 0.84200 0.24500
v 0.03100 0.84200 0.24500
v 0.03100 0.73800 0.24500
v 0.02300 0.73800 0.24500
v 0.15900 0.84200 0.24500
v 0.16700 0.84200 0.24500
v 0.16700 0.73800 0.24500
v 0.15900 0.73800 0.24500
v 0.16700 0.80200 0.24500
v 0.20000 0.80200 0.12500
v 0.20000 0.78800 0.12500
v 0.16700 0.78800 0.24500
v -0.02300 0.80200 0.24500
v 0.02300 0.80200 0.24500
v 0.02300 0.79000 0.24500
v -0.02300 0.79000 0.24500
o dark
f 1 2 3
f 1 3 4
f 3 2 1
f 4 3 1
f 5 6 7
f 5 7 8
f 7 6 5
f 8 7 5
f 9 10 11
f 9 11 12
f 11 10 9
f 12 11 9
f 13 14 15
f 13 15 16
f 15 14 13
f 16 15 13
f 17 18 19
f 17 19 20
f 19 18 17
f 20 19 17
f 21 22 23
f 21 23 24
f 23 22 21
f 24 23 21
f 25 26 27
f 25 27 28
f 27 26 25
f 28 27 25
f 29 30 31
f 29 31 32
f 31 30 29
f 32 31 29
f 33 34 35
f 33 35 36
f 35 34 33
f 36 35 33
f 37 38 39
f 37 39 40
f 39 38 37
f 40 39 37
f 41 42 43
f 41 43 44
f 43 42 41
f 44 43 41
