# VERSE CITY lowpoly avatar (bob) generated
v 0.00000 1.16000 0.00000
v 0.00000 1.10500 0.17500
v 0.05408 1.10500 0.16643
v 0.10286 1.10500 0.14158
v 0.14158 1.10500 0.10286
v 0.16643 1.10500 0.05408
v 0.17500 1.10500 0.00000
v 0.16643 1.10500 -0.05408
v 0.14158 1.10500 -0.10286
v 0.10286 1.10500 -0.14158
v 0.05408 1.10500 -0.16643
v 0.00000 1.10500 -0.17500
v -0.05408 1.10500 -0.16643
v -0.10286 1.10500 -0.14158
v -0.14158 1.10500 -0.10286
v -0.16643 1.10500 -0.05408
v -0.17500 1.10500 -0.00000
v -0.16643 1.10500 0.05408
v -0.14158 1.10500 0.10286
v -0.10286 1.10500 0.14158
v -0.05408 1.10500 0.16643
v 0.00000 0.99500 0.26800
v 0.08282 0.99500 0.25488
v 0.15753 0.99500 0.21682
v 0.21682 0.99500 0.15753
v 0.25488 0.99500 0.08282
v 0.26800 0.99500 0.00000
v 0.25488 0.99500 -0.08282
v 0.21682 0.99500 -0.15753
v 0.15753 0.99500 -0.21682
v 0.08282 0.99500 -0.25488
v 0.00000 0.99500 -0.26800
v -0.08282 0.99500 -0.25488
v -0.15753 0.99500 -0.21682
v -0.21682 0.99500 -0.15753
v -0.25488 0.99500 -0.08282
v -0.26800 0.99500 -0.00000
v -0.25488 0.99500 0.08282
v -0.21682 0.99500 0.15753
v -0.15753 0.99500 0.21682
v -0.08282 0.99500 0.25488
v 0.00000 0.88000 0.30200
v 0.09332 0.88000 0.28722
v 0.17751 0.88000 0.24432
v 0.24432 0.88000 0.17751
v 0.28722 0.88000 0.09332
v 0.30200 0.88000 0.00000
v 0.28722 0.88000 -0.09332
v 0.24432 0.88000 -0.17751
v 0.17751 0.88000 -0.24432
v 0.09332 0.88000 -0.28722
v 0.00000 0.88000 -0.30200
v -0.09332 0.88000 -0.28722
v -0.17751 0.88000 -0.24432
v -0.24432 0.88000 -0.17751
v -0.28722 0.88000 -0.09332
v -0.30200 0.88000 -0.00000
v -0.28722 0.88000 0.09332
v -0.24432 0.88000 0.17751
v -0.17751 0.88000 0.24432
v -0.09332 0.88000 0.28722
v 0.00000 0.73000 0.29500
v 0.09116 0.73000 0.28056
v 0.17340 0.73000 0.23866
v 0.23866 0.73000 0.17340
v 0.28056 0.73000 0.09116
v 0.29500 0.73000 0.00000
v 0.28056 0.73000 -0.09116
v 0.23866 0.73000 -0.17340
v 0.17340 0.73000 -0.23866
v 0.09116 0.73000 -0.28056
v 0.00000 0.73000 -0.29500
v -0.09116 0.73000 -0.28056
v -0.17340 0.73000 -0.23866
v -0.23866 0.73000 -0.17340
v -0.28056 0.73000 -0.09116
v -0.29500 0.73000 -0.00000
v -0.28056 0.73000 0.09116
v -0.23866 0.73000 0.17340
v -0.17340 0.73000 0.23866
v -0.09116 0.73000 0.28056
v 0.00000 0.60000 0.26200
v 0.08096 0.60000 0.24918
v 0.15400 0.60000 0.21196
v 0.21196 0.60000 0.15400
v 0.24918 0.60000 0.08096
v 0.26200 0.60000 0.00000
v 0.24918 0.60000 -0.08096
v 0.21196 0.60000 -0.15400
v 0.15400 0.60000 -0.21196
v 0.08096 0.60000 -0.24918
v 0.00000 0.60000 -0.26200
v -0.08096 0.60000 -0.24918
v -0.15400 0.60000 -0.21196
v -0.21196 0.60000 -0.15400
v -0.24918 0.60000 -0.08096
v -0.26200 0.60000 -0.00000
v -0.24918 0.60000 0.08096
v -0.21196 0.60000 0.15400
v -0.15400 0.60000 0.21196
v -0.08096 0.60000 0.24918
v 0.00000 0.50000 0.23800
v 0.07355 0.50000 0.22635
v 0.13989 0.50000 0.19255
v 0.19255 0.50000 0.13989
v 0.22635 0.50000 0.07355
v 0.23800 0.50000 0.00000
v 0.22635 0.50000 -0.07355
v 0.19255 0.50000 -0.13989
v 0.13989 0.50000 -0.19255
v 0.07355 0.50000 -0.22635
v 0.00000 0.50000 -0.23800
v -0.07355 0.50000 -0.22635
v -0.13989 0.50000 -0.19255
v -0.19255 0.50000 -0.13989
v -0.22635 0.50000 -0.07355
v -0.23800 0.50000 -0.00000
v -0.22635 0.50000 0.07355
v -0.19255 0.50000 0.13989
v -0.13989 0.50000 0.19255
v -0.07355 0.50000 0.22635
v 0.16324 0.42500 0.16324
v 0.20570 0.42500 0.10481
v 0.22802 0.42500 0.03611
v 0.22802 0.42500 -0.03611
v 0.20570 0.42500 -0.10481
v 0.16324 0.42500 -0.16324
v 0.10481 0.42500 -0.20570
v 0.03611 0.42500 -0.22802
v -0.03611 0.42500 -0.22802
v -0.10481 0.42500 -0.20570
v -0.16324 0.42500 -0.16324
v -0.20570 0.42500 -0.10481
v -0.22802 0.42500 -0.03611
v -0.22802 0.42500 0.03611
v -0.20570 0.42500 0.10481
v -0.16324 0.42500 0.16324
v 0.00000 0.73000 0.32700
v -0.12959 0.78500 0.28176
v 0.12959 0.78500 0.28176
v 0.21000 0.62000 0.21000
v -0.21000 0.62000 0.21000
v 0.00000 1.13200 0.00000
v 0.00000 0.58800 0.00000
v 0.00000 1.11560 0.09303
v 0.04036 1.11560 0.08382
v 0.07273 1.11560 0.05800
v 0.09070 1.11560 0.02070
v 0.09070 1.11560 -0.02070
v 0.07273 1.11560 -0.05800
v 0.04036 1.11560 -0.08382
v 0.00000 1.11560 -0.09303
v -0.04036 1.11560 -0.08382
v -0.07273 1.11560 -0.05800
v -0.09070 1.11560 -0.02070
v -0.09070 1.11560 0.02070
v -0.07273 1.11560 0.05800
v -0.04036 1.11560 0.08382
v 0.00000 1.06836 0.17484
v 0.07586 1.06836 0.15752
v 0.13669 1.06836 0.10901
v 0.17045 1.06836 0.03891
v 0.17045 1.06836 -0.03891
v 0.13669 1.06836 -0.10901
v 0.07586 1.06836 -0.15752
v 0.00000 1.06836 -0.17484
v -0.07586 1.06836 -0.15752
v -0.13669 1.06836 -0.10901
v -0.17045 1.06836 -0.03891
v -0.17045 1.06836 0.03891
v -0.13669 1.06836 0.10901
v -0.07586 1.06836 0.15752
v 0.00000 0.99600 0.23556
v 0.10221 0.99600 0.21223
v 0.18417 0.99600 0.14687
v 0.22965 0.99600 0.05242
v 0.22965 0.99600 -0.05242
v 0.18417 0.99600 -0.14687
v 0.10221 0.99600 -0.21223
v 0.00000 0.99600 -0.23556
v -0.10221 0.99600 -0.21223
v -0.18417 0.99600 -0.14687
v -0.22965 0.99600 -0.05242
v -0.22965 0.99600 0.05242
v -0.18417 0.99600 0.14687
v -0.10221 0.99600 0.21223
v 0.00000 0.90723 0.26787
v 0.11622 0.90723 0.24134
v 0.20943 0.90723 0.16701
v 0.26115 0.90723 0.05961
v 0.26115 0.90723 -0.05961
v 0.20943 0.90723 -0.16701
v 0.11622 0.90723 -0.24134
v 0.00000 0.90723 -0.26787
v -0.11622 0.90723 -0.24134
v -0.20943 0.90723 -0.16701
v -0.26115 0.90723 -0.05961
v -0.26115 0.90723 0.05961
v -0.20943 0.90723 0.16701
v -0.11622 0.90723 0.24134
v 0.00000 0.81277 0.26787
v 0.11622 0.81277 0.24134
v 0.20943 0.81277 0.16701
v 0.26115 0.81277 0.05961
v 0.26115 0.81277 -0.05961
v 0.20943 0.81277 -0.16701
v 0.11622 0.81277 -0.24134
v 0.00000 0.81277 -0.26787
v -0.11622 0.81277 -0.24134
v -0.20943 0.81277 -0.16701
v -0.26115 0.81277 -0.05961
v -0.26115 0.81277 0.05961
v -0.20943 0.81277 0.16701
v -0.11622 0.81277 0.24134
v 0.00000 0.72400 0.23556
v 0.10221 0.72400 0.21223
v 0.18417 0.72400 0.14687
v 0.22965 0.72400 0.05242
v 0.22965 0.72400 -0.05242
v 0.18417 0.72400 -0.14687
v 0.10221 0.72400 -0.21223
v 0.00000 0.72400 -0.23556
v -0.10221 0.72400 -0.21223
v -0.18417 0.72400 -0.14687
v -0.22965 0.72400 -0.05242
v -0.22965 0.72400 0.05242
v -0.18417 0.72400 0.14687
v -0.10221 0.72400 0.21223
v 0.00000 0.65164 0.17484
v 0.07586 0.65164 0.15752
v 0.13669 0.65164 0.10901
v 0.17045 0.65164 0.03891
v 0.17045 0.65164 -0.03891
v 0.13669 0.65164 -0.10901
v 0.07586 0.65164 -0.15752
v 0.00000 0.65164 -0.17484
v -0.07586 0.65164 -0.15752
v -0.13669 0.65164 -0.10901
v -0.17045 0.65164 -0.03891
v -0.17045 0.65164 0.03891
v -0.13669 0.65164 0.10901
v -0.07586 0.65164 0.15752
v 0.00000 0.60440 0.09303
v 0.04036 0.60440 0.08382
v 0.07273 0.60440 0.05800
v 0.09070 0.60440 0.02070
v 0.09070 0.60440 -0.02070
v 0.07273 0.60440 -0.05800
v 0.04036 0.60440 -0.08382
v 0.00000 0.60440 -0.09303
v -0.04036 0.60440 -0.08382
v -0.07273 0.60440 -0.05800
v -0.09070 0.60440 -0.02070
v -0.09070 0.60440 0.02070
v -0.07273 0.60440 0.05800
v -0.04036 0.60440 0.08382
v -0.12550 0.76550 0.24666
v -0.08450 0.76550 0.24666
v -0.08450 0.81250 0.24666
v -0.12550 0.81250 0.24666
v -0.12550 0.73650 0.23250
v -0.08450 0.73650 0.23250
v -0.08450 0.76550 0.23250
v -0.12550 0.76550 0.23250
v -0.12000 0.79650 0.24659
v -0.11200 0.79650 0.24659
v -0.11200 0.80750 0.24659
v -0.12000 0.80750 0.24659
v 0.08450 0.76550 0.24666
v 0.12550 0.76550 0.24666
v 0.12550 0.81250 0.24666
v 0.08450 0.81250 0.24666
v 0.08450 0.73650 0.23250
v 0.12550 0.73650 0.23250
v 0.12550 0.76550 0.23250
v 0.08450 0.76550 0.23250
v 0.09000 0.79650 0.25606
v 0.09800 0.79650 0.25606
v 0.09800 0.80750 0.25606
v 0.09000 0.80750 0.25606
v -0.15700 0.70300 0.19073
v -0.11100 0.70300 0.19073
v -0.11100 0.72100 0.19073
v -0.15700 0.72100 0.19073
v 0.11100 0.70300 0.19073
v 0.15700 0.70300 0.19073
v 0.15700 0.72100 0.19073
v 0.11100 0.72100 0.19073
v -0.00900 0.67150 0.20540
v 0.00900 0.67150 0.20540
v 0.00900 0.67850 0.20540
v -0.00900 0.67850 0.20540
v 0.00000 0.64500 0.00000
v 0.00000 0.64500 0.10000
v 0.05878 0.64500 0.08090
v 0.09511 0.64500 0.03090
v 0.09511 0.64500 -0.03090
v 0.05878 0.64500 -0.08090
v 0.00000 0.64500 -0.10000
v -0.05878 0.64500 -0.08090
v -0.09511 0.64500 -0.03090
v -0.09511 0.64500 0.03090
v -0.05878 0.64500 0.08090
v 0.00000 0.56000 0.14800
v 0.08699 0.56000 0.11973
v 0.14076 0.56000 0.04573
v 0.14076 0.56000 -0.04573
v 0.08699 0.56000 -0.11973
v 0.00000 0.56000 -0.14800
v -0.08699 0.56000 -0.11973
v -0.14076 0.56000 -0.04573
v -0.14076 0.56000 0.04573
v -0.08699 0.56000 0.11973
v 0.00000 0.42000 0.17800
v 0.10463 0.42000 0.14401
v 0.16929 0.42000 0.05501
v 0.16929 0.42000 -0.05501
v 0.10463 0.42000 -0.14401
v 0.00000 0.42000 -0.17800
v -0.10463 0.42000 -0.14401
v -0.16929 0.42000 -0.05501
v -0.16929 0.42000 0.05501
v -0.10463 0.42000 0.14401
v 0.00000 0.24000 0.21200
v 0.12461 0.24000 0.17151
v 0.20162 0.24000 0.06551
v 0.20162 0.24000 -0.06551
v 0.12461 0.24000 -0.17151
v 0.00000 0.24000 -0.21200
v -0.12461 0.24000 -0.17151
v -0.20162 0.24000 -0.06551
v -0.20162 0.24000 0.06551
v -0.12461 0.24000 0.17151
v 0.06551 0.20800 0.20162
v 0.17151 0.20800 0.12461
v 0.21200 0.20800 0.00000
v 0.17151 0.20800 -0.12461
v 0.06551 0.20800 -0.20162
v -0.06551 0.20800 -0.20162
v -0.17151 0.20800 -0.12461
v -0.21200 0.20800 -0.00000
v -0.17151 0.20800 0.12461
v -0.06551 0.20800 0.20162
v -0.08620 0.55340 0.02000
v -0.12717 0.58877 0.05095
v -0.13163 0.58283 -0.01095
v -0.26500 0.37500 0.05000
v 0.14380 0.59660 0.02000
v 0.09837 0.56717 0.05095
v 0.10283 0.56123 -0.01095
v 0.26500 0.37500 0.05000
v -0.02400 0.20966 0.00000
v -0.07798 0.21195 0.03113
v -0.07802 0.20839 -0.03113
v -0.06200 0.00000 0.01200
v 0.09600 0.21034 0.00000
v 0.04198 0.21161 0.03113
v 0.04202 0.20805 -0.03113
v 0.06200 0.00000 0.01200
v -0.01430 1.15026 0.01000
v 0.01337 1.13768 0.02662
v 0.01593 1.14706 -0.00662
v 0.05000 1.31000 0.06000
o hair
f 1 2 3
f 1 3 4
f 1 4 5
f 1 5 6
f 1 6 7
f 1 7 8
f 1 8 9
f 1 9 10
f 1 10 11
f 1 11 12
f 1 12 13
f 1 13 14
f 1 14 15
f 1 15 16
f 1 16 17
f 1 17 18
f 1 18 19
f 1 19 20
f 1 20 21
f 1 21 2
f 2 22 23
f 2 23 3
f 3 23 24
f 3 24 4
f 4 24 25
f 4 25 5
f 5 25 26
f 5 26 6
f 6 26 27
f 6 27 7
f 7 27 28
f 7 28 8
f 8 28 29
f 8 29 9
f 9 29 30
f 9 30 10
f 10 30 31
f 10 31 11
f 11 31 32
f 11 32 12
f 12 32 33
f 12 33 13
f 13 33 34
f 13 34 14
f 14 34 35
f 14 35 15
f 15 35 36
f 15 36 16
f 16 36 37
f 16 37 17
f 17 37 38
f 17 38 18
f 18 38 39
f 18 39 19
f 19 39 40
f 19 40 20
f 20 40 41
f 20 41 21
f 21 41 22
f 21 22 2
f 24 44 45
f 24 45 25
f 25 45 46
f 25 46 26
f 26 46 47
f 26 47 27
f 27 47 48
f 27 48 28
f 28 48 49
f 28 49 29
f 29 49 50
f 29 50 30
f 30 50 51
f 30 51 31
f 31 51 52
f 31 52 32
f 32 52 53
f 32 53 33
f 33 53 54
f 33 54 34
f 34 54 55
f 34 55 35
f 35 55 56
f 35 56 36
f 36 56 57
f 36 57 37
f 37 57 58
f 37 58 38
f 38 58 59
f 38 59 39
f 39 59 60
f 39 60 40
f 44 64 65
f 44 65 45
f 45 65 66
f 45 66 46
f 46 66 67
f 46 67 47
f 47 67 68
f 47 68 48
f 48 68 69
f 48 69 49
f 49 69 70
f 49 70 50
f 50 70 71
f 50 71 51
f 51 71 72
f 51 72 52
f 52 72 73
f 52 73 53
f 53 73 74
f 53 74 54
f 54 74 75
f 54 75 55
f 55 75 76
f 55 76 56
f 56 76 77
f 56 77 57
f 57 77 78
f 57 78 58
f 58 78 79
f 58 79 59
f 59 79 80
f 59 80 60
f 64 84 85
f 64 85 65
f 65 85 86
f 65 86 66
f 66 86 87
f 66 87 67
f 67 87 88
f 67 88 68
f 68 88 89
f 68 89 69
f 69 89 90
f 69 90 70
f 70 90 91
f 70 91 71
f 71 91 92
f 71 92 72
f 72 92 93
f 72 93 73
f 73 93 94
f 73 94 74
f 74 94 95
f 74 95 75
f 75 95 96
f 75 96 76
f 76 96 97
f 76 97 77
f 77 97 98
f 77 98 78
f 78 98 99
f 78 99 79
f 79 99 100
f 79 100 80
f 84 104 105
f 84 105 85
f 85 105 106
f 85 106 86
f 86 106 107
f 86 107 87
f 87 107 108
f 87 108 88
f 88 108 109
f 88 109 89
f 89 109 110
f 89 110 90
f 90 110 111
f 90 111 91
f 91 111 112
f 91 112 92
f 92 112 113
f 92 113 93
f 93 113 114
f 93 114 94
f 94 114 115
f 94 115 95
f 95 115 116
f 95 116 96
f 96 116 117
f 96 117 97
f 97 117 118
f 97 118 98
f 98 118 119
f 98 119 99
f 99 119 120
f 99 120 100
f 104 122 105
f 105 123 106
f 106 124 107
f 107 125 108
f 108 126 109
f 109 127 110
f 110 128 111
f 111 129 112
f 112 130 113
f 113 131 114
f 114 132 115
f 115 133 116
f 116 134 117
f 117 135 118
f 118 136 119
f 119 137 120
f 41 138 23
f 40 139 41
f 23 140 24
f 24 141 44
f 44 141 64
f 40 142 60
f 60 142 80
f 360 361 363
f 361 362 363
f 362 360 363
f 362 361 360
o skin
f 143 145 146
f 144 244 243
f 143 146 147
f 144 245 244
f 143 147 148
f 144 246 245
f 143 148 149
f 144 247 246
f 143 149 150
f 144 248 247
f 143 150 151
f 144 249 248
f 143 151 152
f 144 250 249
f 143 152 153
f 144 251 250
f 143 153 154
f 144 252 251
f 143 154 155
f 144 253 252
f 143 155 156
f 144 254 253
f 143 156 157
f 144 255 254
f 143 157 158
f 144 256 255
f 143 158 145
f 144 243 256
f 145 159 160
f 145 160 146
f 146 160 161
f 146 161 147
f 147 161 162
f 147 162 148
f 148 162 163
f 148 163 149
f 149 163 164
f 149 164 150
f 150 164 165
f 150 165 151
f 151 165 166
f 151 166 152
f 152 166 167
f 152 167 153
f 153 167 168
f 153 168 154
f 154 168 169
f 154 169 155
f 155 169 170
f 155 170 156
f 156 170 171
f 156 171 157
f 157 171 172
f 157 172 158
f 158 172 159
f 158 159 145
f 159 173 174
f 159 174 160
f 160 174 175
f 160 175 161
f 161 175 176
f 161 176 162
f 162 176 177
f 162 177 163
f 163 177 178
f 163 178 164
f 164 178 179
f 164 179 165
f 165 179 180
f 165 180 166
f 166 180 181
f 166 181 167
f 167 181 182
f 167 182 168
f 168 182 183
f 168 183 169
f 169 183 184
f 169 184 170
f 170 184 185
f 170 185 171
f 171 185 186
f 171 186 172
f 172 186 173
f 172 173 159
f 173 187 188
f 173 188 174
f 174 188 189
f 174 189 175
f 175 189 190
f 175 190 176
f 176 190 191
f 176 191 177
f 177 191 192
f 177 192 178
f 178 192 193
f 178 193 179
f 179 193 194
f 179 194 180
f 180 194 195
f 180 195 181
f 181 195 196
f 181 196 182
f 182 196 197
f 182 197 183
f 183 197 198
f 183 198 184
f 184 198 199
f 184 199 185
f 185 199 200
f 185 200 186
f 186 200 187
f 186 187 173
f 187 201 202
f 187 202 188
f 188 202 203
f 188 203 189
f 189 203 204
f 189 204 190
f 190 204 205
f 190 205 191
f 191 205 206
f 191 206 192
f 192 206 207
f 192 207 193
f 193 207 208
f 193 208 194
f 194 208 209
f 194 209 195
f 195 209 210
f 195 210 196
f 196 210 211
f 196 211 197
f 197 211 212
f 197 212 198
f 198 212 213
f 198 213 199
f 199 213 214
f 199 214 200
f 200 214 201
f 200 201 187
f 201 215 216
f 201 216 202
f 202 216 217
f 202 217 203
f 203 217 218
f 203 218 204
f 204 218 219
f 204 219 205
f 205 219 220
f 205 220 206
f 206 220 221
f 206 221 207
f 207 221 222
f 207 222 208
f 208 222 223
f 208 223 209
f 209 223 224
f 209 224 210
f 210 224 225
f 210 225 211
f 211 225 226
f 211 226 212
f 212 226 227
f 212 227 213
f 213 227 228
f 213 228 214
f 214 228 215
f 214 215 201
f 215 229 230
f 215 230 216
f 216 230 231
f 216 231 217
f 217 231 232
f 217 232 218
f 218 232 233
f 218 233 219
f 219 233 234
f 219 234 220
f 220 234 235
f 220 235 221
f 221 235 236
f 221 236 222
f 222 236 237
f 222 237 223
f 223 237 238
f 223 238 224
f 224 238 239
f 224 239 225
f 225 239 240
f 225 240 226
f 226 240 241
f 226 241 227
f 227 241 242
f 227 242 228
f 228 242 229
f 228 229 215
f 229 243 244
f 229 244 230
f 230 244 245
f 230 245 231
f 231 245 246
f 231 246 232
f 232 246 247
f 232 247 233
f 233 247 248
f 233 248 234
f 234 248 249
f 234 249 235
f 235 249 250
f 235 250 236
f 236 250 251
f 236 251 237
f 237 251 252
f 237 252 238
f 238 252 253
f 238 253 239
f 239 253 254
f 239 254 240
f 240 254 255
f 240 255 241
f 241 255 256
f 241 256 242
f 242 256 243
f 242 243 229
f 344 345 347
f 345 346 347
f 346 344 347
f 346 345 344
f 348 349 351
f 349 350 351
f 350 348 351
f 350 349 348
o eye
f 257 258 259
f 257 259 260
f 269 270 271
f 269 271 272
o eyec
f 261 262 263
f 261 263 264
f 273 274 275
f 273 275 276
o eyew
f 265 266 267
f 265 267 268
f 277 278 279
f 277 279 280
o cheek
f 281 282 283
f 281 283 284
f 285 286 287
f 285 287 288
f 289 290 291
f 289 291 292
o cloth
f 293 294 295
f 293 295 296
f 293 296 297
f 293 297 298
f 293 298 299
f 293 299 300
f 293 300 301
f 293 301 302
f 293 302 303
f 293 303 294
f 294 304 305
f 294 305 295
f 295 305 306
f 295 306 296
f 296 306 307
f 296 307 297
f 297 307 308
f 297 308 298
f 298 308 309
f 298 309 299
f 299 309 310
f 299 310 300
f 300 310 311
f 300 311 301
f 301 311 312
f 301 312 302
f 302 312 313
f 302 313 303
f 303 313 304
f 303 304 294
f 304 314 315
f 304 315 305
f 305 315 316
f 305 316 306
f 306 316 317
f 306 317 307
f 307 317 318
f 307 318 308
f 308 318 319
f 308 319 309
f 309 319 320
f 309 320 310
f 310 320 321
f 310 321 311
f 311 321 322
f 311 322 312
f 312 322 323
f 312 323 313
f 313 323 314
f 313 314 304
f 314 324 325
f 314 325 315
f 315 325 326
f 315 326 316
f 316 326 327
f 316 327 317
f 317 327 328
f 317 328 318
f 318 328 329
f 318 329 319
f 319 329 330
f 319 330 320
f 320 330 331
f 320 331 321
f 321 331 332
f 321 332 322
f 322 332 333
f 322 333 323
f 323 333 324
f 323 324 314
f 324 334 325
f 325 335 326
f 326 336 327
f 327 337 328
f 328 338 329
f 329 339 330
f 330 340 331
f 331 341 332
f 332 342 333
f 333 343 324
o dark
f 352 353 355
f 353 354 355
f 354 352 355
f 354 353 352
f 356 357 359
f 357 358 359
f 358 356 359
f 358 357 356
