# VERSE CITY lowpoly avatar part (body_short) generated
v 0.00000 1.13200 0.00000
v 0.00000 0.58800 0.00000
v 0.00000 1.11560 0.09303
v 0.04036 1.11560 0.08382
v 0.07273 1.11560 0.05800
v 0.09070 1.11560 0.02070
v 0.09070 1.11560 -0.02070
v 0.07273 1.11560 -0.05800
v 0.04036 1.11560 -0.08382
v 0.00000 1.11560 -0.09303
v -0.04036 1.11560 -0.08382
v -0.07273 1.11560 -0.05800
v -0.09070 1.11560 -0.02070
v -0.09070 1.11560 0.02070
v -0.07273 1.11560 0.05800
v -0.04036 1.11560 0.08382
v 0.00000 1.06836 0.17484
v 0.07586 1.06836 0.15752
v 0.13669 1.06836 0.10901
v 0.17045 1.06836 0.03891
v 0.17045 1.06836 -0.03891
v 0.13669 1.06836 -0.10901
v 0.07586 1.06836 -0.15752
v 0.00000 1.06836 -0.17484
v -0.07586 1.06836 -0.15752
v -0.13669 1.06836 -0.10901
v -0.17045 1.06836 -0.03891
v -0.17045 1.06836 0.03891
v -0.13669 1.06836 0.10901
v -0.07586 1.06836 0.15752
v 0.00000 0.99600 0.23556
v 0.10221 0.99600 0.21223
v 0.18417 0.99600 0.14687
v 0.22965 0.99600 0.05242
v 0.22965 0.99600 -0.05242
v 0.18417 0.99600 -0.14687
v 0.10221 0.99600 -0.21223
v 0.00000 0.99600 -0.23556
v -0.10221 0.99600 -0.21223
v -0.18417 0.99600 -0.14687
v -0.22965 0.99600 -0.05242
v -0.22965 0.99600 0.05242
v -0.18417 0.99600 0.14687
v -0.10221 0.99600 0.21223
v 0.00000 0.90723 0.26787
v 0.11622 0.90723 0.24134
v 0.20943 0.90723 0.16701
v 0.26115 0.90723 0.05961
v 0.26115 0.90723 -0.05961
v 0.20943 0.90723 -0.16701
v 0.11622 0.90723 -0.24134
v 0.00000 0.90723 -0.26787
v -0.11622 0.90723 -0.24134
v -0.20943 0.90723 -0.16701
v -0.26115 0.90723 -0.05961
v -0.26115 0.90723 0.05961
v -0.20943 0.90723 0.16701
v -0.11622 0.90723 0.24134
v 0.00000 0.81277 0.26787
v 0.11622 0.81277 0.24134
v 0.20943 0.81277 0.16701
v 0.26115 0.81277 0.05961
v 0.26115 0.81277 -0.05961
v 0.20943 0.81277 -0.16701
v 0.11622 0.81277 -0.24134
v 0.00000 0.81277 -0.26787
v -0.11622 0.81277 -0.24134
v -0.20943 0.81277 -0.16701
v -0.26115 0.81277 -0.05961
v -0.26115 0.81277 0.05961
v -0.20943 0.81277 0.16701
v -0.11622 0.81277 0.24134
v 0.00000 0.72400 0.23556
v 0.10221 0.72400 0.21223
v 0.18417 0.72400 0.14687
v 0.22965 0.72400 0.05242
v 0.22965 0.72400 -0.05242
v 0.18417 0.72400 -0.14687
v 0.10221 0.72400 -0.21223
v 0.00000 0.72400 -0.23556
v -0.10221 0.72400 -0.21223
v -0.18417 0.72400 -0.14687
v -0.22965 0.72400 -0.05242
v -0.22965 0.72400 0.05242
v -0.18417 0.72400 0.14687
v -0.10221 0.72400 0.21223
v 0.00000 0.65164 0.17484
v 0.07586 0.65164 0.15752
v 0.13669 0.65164 0.10901
v 0.17045 0.65164 0.03891
v 0.17045 0.65164 -0.03891
v 0.13669 0.65164 -0.10901
v 0.07586 0.65164 -0.15752
v 0.00000 0.65164 -0.17484
v -0.07586 0.65164 -0.15752
v -0.13669 0.65164 -0.10901
v -0.17045 0.65164 -0.03891
v -0.17045 0.65164 0.03891
v -0.13669 0.65164 0.10901
v -0.07586 0.65164 0.15752
v 0.00000 0.60440 0.09303
v 0.04036 0.60440 0.08382
v 0.07273 0.60440 0.05800
v 0.09070 0.60440 0.02070
v 0.09070 0.60440 -0.02070
v 0.07273 0.60440 -0.05800
v 0.04036 0.60440 -0.08382
v 0.00000 0.60440 -0.09303
v -0.04036 0.60440 -0.08382
v -0.07273 0.60440 -0.05800
v -0.09070 0.60440 -0.02070
v -0.09070 0.60440 0.02070
v -0.07273 0.60440 0.05800
v -0.04036 0.60440 0.08382
v -0.12550 0.76550 0.24666
v -0.08450 0.76550 0.24666
v -0.08450 0.81250 0.24666
v -0.12550 0.81250 0.24666
v -0.12550 0.73650 0.23250
v -0.08450 0.73650 0.23250
v -0.08450 0.76550 0.23250
v -0.12550 0.76550 0.23250
v -0.12000 0.79650 0.24659
v -0.11200 0.79650 0.24659
v -0.11200 0.80750 0.24659
v -0.12000 0.80750 0.24659
v 0.08450 0.76550 0.24666
v 0.12550 0.76550 0.24666
v 0.12550 0.81250 0.24666
v 0.08450 0.81250 0.24666
v 0.08450 0.73650 0.23250
v 0.12550 0.73650 0.23250
v 0.12550 0.76550 0.23250
v 0.08450 0.76550 0.23250
v 0.09000 0.79650 0.25606
v 0.09800 0.79650 0.25606
v 0.09800 0.80750 0.25606
v 0.09000 0.80750 0.25606
v -0.15700 0.70300 0.19073
v -0.11100 0.70300 0.19073
v -0.11100 0.72100 0.19073
v -0.15700 0.72100 0.19073
v 0.11100 0.70300 0.19073
v 0.15700 0.70300 0.19073
v 0.15700 0.72100 0.19073
v 0.11100 0.72100 0.19073
v -0.00900 0.67150 0.20540
v 0.00900 0.67150 0.20540
v 0.00900 0.67850 0.20540
v -0.00900 0.67850 0.20540
v -0.08620 0.55340 0.02000
v -0.12717 0.58877 0.05095
v -0.13163 0.58283 -0.01095
v -0.26500 0.37500 0.05000
v 0.14380 0.59660 0.02000
v 0.09837 0.56717 0.05095
v 0.10283 0.56123 -0.01095
v 0.26500 0.37500 0.05000
v 0.00000 0.64500 0.00000
v 0.00000 0.64500 0.10000
v 0.05878 0.64500 0.08090
v 0.09511 0.64500 0.03090
v 0.09511 0.64500 -0.03090
v 0.05878 0.64500 -0.08090
v 0.00000 0.64500 -0.10000
v -0.05878 0.64500 -0.08090
v -0.09511 0.64500 -0.03090
v -0.09511 0.64500 0.03090
v -0.05878 0.64500 0.08090
v 0.00000 0.56000 0.14000
v 0.08229 0.56000 0.11326
v 0.13315 0.56000 0.04326
v 0.13315 0.56000 -0.04326
v 0.08229 0.56000 -0.11326
v 0.00000 0.56000 -0.14000
v -0.08229 0.56000 -0.11326
v -0.13315 0.56000 -0.04326
v -0.13315 0.56000 0.04326
v -0.08229 0.56000 0.11326
v 0.00000 0.44000 0.15500
v 0.09111 0.44000 0.12540
v 0.14741 0.44000 0.04790
v 0.14741 0.44000 -0.04790
v 0.09111 0.44000 -0.12540
v 0.00000 0.44000 -0.15500
v -0.09111 0.44000 -0.12540
v -0.14741 0.44000 -0.04790
v -0.14741 0.44000 0.04790
v -0.09111 0.44000 0.12540
v 0.00000 0.34000 0.16000
v 0.09405 0.34000 0.12944
v 0.15217 0.34000 0.04944
v 0.15217 0.34000 -0.04944
v 0.09405 0.34000 -0.12944
v 0.00000 0.34000 -0.16000
v -0.09405 0.34000 -0.12944
v -0.15217 0.34000 -0.04944
v -0.15217 0.34000 0.04944
v -0.09405 0.34000 0.12944
v 0.04944 0.31500 0.15217
v 0.12944 0.31500 0.09405
v 0.16000 0.31500 0.00000
v 0.12944 0.31500 -0.09405
v 0.04944 0.31500 -0.15217
v -0.04944 0.31500 -0.15217
v -0.12944 0.31500 -0.09405
v -0.16000 0.31500 -0.00000
v -0.12944 0.31500 0.09405
v -0.04944 0.31500 0.15217
v -0.02400 0.31978 0.00000
v -0.07799 0.32128 0.03116
v -0.07801 0.31894 -0.03116
v -0.06200 0.00000 0.01200
v 0.09600 0.32022 0.00000
v 0.04199 0.32106 0.03116
v 0.04201 0.31872 -0.03116
v 0.06200 0.00000 0.01200
o skin
f 1 3 4
f 2 102 101
f 1 4 5
f 2 103 102
f 1 5 6
f 2 104 103
f 1 6 7
f 2 105 104
f 1 7 8
f 2 106 105
f 1 8 9
f 2 107 106
f 1 9 10
f 2 108 107
f 1 10 11
f 2 109 108
f 1 11 12
f 2 110 109
f 1 12 13
f 2 111 110
f 1 13 14
f 2 112 111
f 1 14 15
f 2 113 112
f 1 15 16
f 2 114 113
f 1 16 3
f 2 101 114
f 3 17 18
f 3 18 4
f 4 18 19
f 4 19 5
f 5 19 20
f 5 20 6
f 6 20 21
f 6 21 7
f 7 21 22
f 7 22 8
f 8 22 23
f 8 23 9
f 9 23 24
f 9 24 10
f 10 24 25
f 10 25 11
f 11 25 26
f 11 26 12
f 12 26 27
f 12 27 13
f 13 27 28
f 13 28 14
f 14 28 29
f 14 29 15
f 15 29 30
f 15 30 16
f 16 30 17
f 16 17 3
f 17 31 32
f 17 32 18
f 18 32 33
f 18 33 19
f 19 33 34
f 19 34 20
f 20 34 35
f 20 35 21
f 21 35 36
f 21 36 22
f 22 36 37
f 22 37 23
f 23 37 38
f 23 38 24
f 24 38 39
f 24 39 25
f 25 39 40
f 25 40 26
f 26 40 41
f 26 41 27
f 27 41 42
f 27 42 28
f 28 42 43
f 28 43 29
f 29 43 44
f 29 44 30
f 30 44 31
f 30 31 17
f 31 45 46
f 31 46 32
f 32 46 47
f 32 47 33
f 33 47 48
f 33 48 34
f 34 48 49
f 34 49 35
f 35 49 50
f 35 50 36
f 36 50 51
f 36 51 37
f 37 51 52
f 37 52 38
f 38 52 53
f 38 53 39
f 39 53 54
f 39 54 40
f 40 54 55
f 40 55 41
f 41 55 56
f 41 56 42
f 42 56 57
f 42 57 43
f 43 57 58
f 43 58 44
f 44 58 45
f 44 45 31
f 45 59 60
f 45 60 46
f 46 60 61
f 46 61 47
f 47 61 62
f 47 62 48
f 48 62 63
f 48 63 49
f 49 63 64
f 49 64 50
f 50 64 65
f 50 65 51
f 51 65 66
f 51 66 52
f 52 66 67
f 52 67 53
f 53 67 68
f 53 68 54
f 54 68 69
f 54 69 55
f 55 69 70
f 55 70 56
f 56 70 71
f 56 71 57
f 57 71 72
f 57 72 58
f 58 72 59
f 58 59 45
f 59 73 74
f 59 74 60
f 60 74 75
f 60 75 61
f 61 75 76
f 61 76 62
f 62 76 77
f 62 77 63
f 63 77 78
f 63 78 64
f 64 78 79
f 64 79 65
f 65 79 80
f 65 80 66
f 66 80 81
f 66 81 67
f 67 81 82
f 67 82 68
f 68 82 83
f 68 83 69
f 69 83 84
f 69 84 70
f 70 84 85
f 70 85 71
f 71 85 86
f 71 86 72
f 72 86 73
f 72 73 59
f 73 87 88
f 73 88 74
f 74 88 89
f 74 89 75
f 75 89 90
f 75 90 76
f 76 90 91
f 76 91 77
f 77 91 92
f 77 92 78
f 78 92 93
f 78 93 79
f 79 93 94
f 79 94 80
f 80 94 95
f 80 95 81
f 81 95 96
f 81 96 82
f 82 96 97
f 82 97 83
f 83 97 98
f 83 98 84
f 84 98 99
f 84 99 85
f 85 99 100
f 85 100 86
f 86 100 87
f 86 87 73
f 87 101 102
f 87 102 88
f 88 102 103
f 88 103 89
f 89 103 104
f 89 104 90
f 90 104 105
f 90 105 91
f 91 105 106
f 91 106 92
f 92 106 107
f 92 107 93
f 93 107 108
f 93 108 94
f 94 108 109
f 94 109 95
f 95 109 110
f 95 110 96
f 96 110 111
f 96 111 97
f 97 111 112
f 97 112 98
f 98 112 113
f 98 113 99
f 99 113 114
f 99 114 100
f 100 114 101
f 100 101 87
o eye
f 115 116 117
f 115 117 118
f 127 128 129
f 127 129 130
o eyec
f 119 120 121
f 119 121 122
f 131 132 133
f 131 133 134
o eyew
f 123 124 125
f 123 125 126
f 135 136 137
f 135 137 138
o cheek
f 139 140 141
f 139 141 142
f 143 144 145
f 143 145 146
f 147 148 149
f 147 149 150
o armL
f 151 152 154
f 152 153 154
f 153 151 154
f 153 152 151
o armR
f 155 156 158
f 156 157 158
f 157 155 158
f 157 156 155
o cloth
f 159 160 161
f 159 161 162
f 159 162 163
f 159 163 164
f 159 164 165
f 159 165 166
f 159 166 167
f 159 167 168
f 159 168 169
f 159 169 160
f 160 170 171
f 160 171 161
f 161 171 172
f 161 172 162
f 162 172 173
f 162 173 163
f 163 173 174
f 163 174 164
f 164 174 175
f 164 175 165
f 165 175 176
f 165 176 166
f 166 176 177
f 166 177 167
f 167 177 178
f 167 178 168
f 168 178 179
f 168 179 169
f 169 179 170
f 169 170 160
f 170 180 181
f 170 181 171
f 171 181 182
f 171 182 172
f 172 182 183
f 172 183 173
f 173 183 184
f 173 184 174
f 174 184 185
f 174 185 175
f 175 185 186
f 175 186 176
f 176 186 187
f 176 187 177
f 177 187 188
f 177 188 178
f 178 188 189
f 178 189 179
f 179 189 180
f 179 180 170
f 180 190 191
f 180 191 181
f 181 191 192
f 181 192 182
f 182 192 193
f 182 193 183
f 183 193 194
f 183 194 184
f 184 194 195
f 184 195 185
f 185 195 196
f 185 196 186
f 186 196 197
f 186 197 187
f 187 197 198
f 187 198 188
f 188 198 199
f 188 199 189
f 189 199 190
f 189 190 180
f 190 200 191
f 191 201 192
f 192 202 193
f 193 203 194
f 194 204 195
f 195 205 196
f 196 206 197
f 197 207 198
f 198 208 199
f 199 209 190
o legL
f 210 211 213
f 211 212 213
f 212 210 213
f 212 211 210
o legR
f 214 215 217
f 215 216 217
f 216 214 217
f 216 215 214
