# VERSE CITY lowpoly avatar (bun) generated
v 0.00000 1.13200 0.00000
v 0.00000 0.58800 0.00000
v 0.00000 1.11560 0.09303
v 0.04036 1.11560 0.08382
v 0.07273 1.11560 0.05800
v 0.09070 1.11560 0.02070
v 0.09070 1.11560 -0.02070
v 0.07273 1.11560 -0.05800
v 0.04036 1.11560 -0.08382
v 0.00000 1.11560 -0.09303
v -0.04036 1.11560 -0.08382
v -0.07273 1.11560 -0.05800
v -0.09070 1.11560 -0.02070
v -0.09070 1.11560 0.02070
v -0.07273 1.11560 0.05800
v -0.04036 1.11560 0.08382
v 0.00000 1.06836 0.17484
v 0.07586 1.06836 0.15752
v 0.13669 1.06836 0.10901
v 0.17045 1.06836 0.03891
v 0.17045 1.06836 -0.03891
v 0.13669 1.06836 -0.10901
v 0.07586 1.06836 -0.15752
v 0.00000 1.06836 -0.17484
v -0.07586 1.06836 -0.15752
v -0.13669 1.06836 -0.10901
v -0.17045 1.06836 -0.03891
v -0.17045 1.06836 0.03891
v -0.13669 1.06836 0.10901
v -0.07586 1.06836 0.15752
v 0.00000 0.99600 0.23556
v 0.10221 0.99600 0.21223
v 0.18417 0.99600 0.14687
v 0.22965 0.99600 0.05242
v 0.22965 0.99600 -0.05242
v 0.18417 0.99600 -0.14687
v 0.10221 0.99600 -0.21223
v 0.00000 0.99600 -0.23556
v -0.10221 0.99600 -0.21223
v -0.18417 0.99600 -0.14687
v -0.22965 0.99600 -0.05242
v -0.22965 0.99600 0.05242
v -0.18417 0.99600 0.14687
v -0.10221 0.99600 0.21223
v 0.00000 0.90723 0.26787
v 0.11622 0.90723 0.24134
v 0.20943 0.90723 0.16701
v 0.26115 0.90723 0.05961
v 0.26115 0.90723 -0.05961
v 0.20943 0.90723 -0.16701
v 0.11622 0.90723 -0.24134
v 0.00000 0.90723 -0.26787
v -0.11622 0.90723 -0.24134
v -0.20943 0.90723 -0.16701
v -0.26115 0.90723 -0.05961
v -0.26115 0.90723 0.05961
v -0.20943 0.90723 0.16701
v -0.11622 0.90723 0.24134
v 0.00000 0.81277 0.26787
v 0.11622 0.81277 0.24134
v 0.20943 0.81277 0.16701
v 0.26115 0.81277 0.05961
v 0.26115 0.81277 -0.05961
v 0.20943 0.81277 -0.16701
v 0.11622 0.81277 -0.24134
v 0.00000 0.81277 -0.26787
v -0.11622 0.81277 -0.24134
v -0.20943 0.81277 -0.16701
v -0.26115 0.81277 -0.05961
v -0.26115 0.81277 0.05961
v -0.20943 0.81277 0.16701
v -0.11622 0.81277 0.24134
v 0.00000 0.72400 0.23556
v 0.10221 0.72400 0.21223
v 0.18417 0.72400 0.14687
v 0.22965 0.72400 0.05242
v 0.22965 0.72400 -0.05242
v 0.18417 0.72400 -0.14687
v 0.10221 0.72400 -0.21223
v 0.00000 0.72400 -0.23556
v -0.10221 0.72400 -0.21223
v -0.18417 0.72400 -0.14687
v -0.22965 0.72400 -0.05242
v -0.22965 0.72400 0.05242
v -0.18417 0.72400 0.14687
v -0.10221 0.72400 0.21223
v 0.00000 0.65164 0.17484
v 0.07586 0.65164 0.15752
v 0.13669 0.65164 0.10901
v 0.17045 0.65164 0.03891
v 0.17045 0.65164 -0.03891
v 0.13669 0.65164 -0.10901
v 0.07586 0.65164 -0.15752
v 0.00000 0.65164 -0.17484
v -0.07586 0.65164 -0.15752
v -0.13669 0.65164 -0.10901
v -0.17045 0.65164 -0.03891
v -0.17045 0.65164 0.03891
v -0.13669 0.65164 0.10901
v -0.07586 0.65164 0.15752
v 0.00000 0.60440 0.09303
v 0.04036 0.60440 0.08382
v 0.07273 0.60440 0.05800
v 0.09070 0.60440 0.02070
v 0.09070 0.60440 -0.02070
v 0.07273 0.60440 -0.05800
v 0.04036 0.60440 -0.08382
v 0.00000 0.60440 -0.09303
v -0.04036 0.60440 -0.08382
v -0.07273 0.60440 -0.05800
v -0.09070 0.60440 -0.02070
v -0.09070 0.60440 0.02070
v -0.07273 0.60440 0.05800
v -0.04036 0.60440 0.08382
v -0.12550 0.76550 0.24666
v -0.08450 0.76550 0.24666
v -0.08450 0.81250 0.24666
v -0.12550 0.81250 0.24666
v -0.12550 0.73650 0.23250
v -0.08450 0.73650 0.23250
v -0.08450 0.76550 0.23250
v -0.12550 0.76550 0.23250
v -0.12000 0.79650 0.24659
v -0.11200 0.79650 0.24659
v -0.11200 0.80750 0.24659
v -0.12000 0.80750 0.24659
v 0.08450 0.76550 0.24666
v 0.12550 0.76550 0.24666
v 0.12550 0.81250 0.24666
v 0.08450 0.81250 0.24666
v 0.08450 0.73650 0.23250
v 0.12550 0.73650 0.23250
v 0.12550 0.76550 0.23250
v 0.08450 0.76550 0.23250
v 0.09000 0.79650 0.25606
v 0.09800 0.79650 0.25606
v 0.09800 0.80750 0.25606
v 0.09000 0.80750 0.25606
v -0.15700 0.70300 0.19073
v -0.11100 0.70300 0.19073
v -0.11100 0.72100 0.19073
v -0.15700 0.72100 0.19073
v 0.11100 0.70300 0.19073
v 0.15700 0.70300 0.19073
v 0.15700 0.72100 0.19073
v 0.11100 0.72100 0.19073
v -0.00900 0.67150 0.20540
v 0.00900 0.67150 0.20540
v 0.00900 0.67850 0.20540
v -0.00900 0.67850 0.20540
v -0.08620 0.55340 0.02000
v -0.12717 0.58877 0.05095
v -0.13163 0.58283 -0.01095
v -0.26500 0.37500 0.05000
v 0.14380 0.59660 0.02000
v 0.09837 0.56717 0.05095
v 0.10283 0.56123 -0.01095
v 0.26500 0.37500 0.05000
v 0.00000 1.16000 0.00000
v 0.00000 1.10500 0.17500
v 0.05408 1.10500 0.16643
v 0.10286 1.10500 0.14158
v 0.14158 1.10500 0.10286
v 0.16643 1.10500 0.05408
v 0.17500 1.10500 0.00000
v 0.16643 1.10500 -0.05408
v 0.14158 1.10500 -0.10286
v 0.10286 1.10500 -0.14158
v 0.05408 1.10500 -0.16643
v 0.00000 1.10500 -0.17500
v -0.05408 1.10500 -0.16643
v -0.10286 1.10500 -0.14158
v -0.14158 1.10500 -0.10286
v -0.16643 1.10500 -0.05408
v -0.17500 1.10500 -0.00000
v -0.16643 1.10500 0.05408
v -0.14158 1.10500 0.10286
v -0.10286 1.10500 0.14158
v -0.05408 1.10500 0.16643
v 0.00000 0.99500 0.26800
v 0.08282 0.99500 0.25488
v 0.15753 0.99500 0.21682
v 0.21682 0.99500 0.15753
v 0.25488 0.99500 0.08282
v 0.26800 0.99500 0.00000
v 0.25488 0.99500 -0.08282
v 0.21682 0.99500 -0.15753
v 0.15753 0.99500 -0.21682
v 0.08282 0.99500 -0.25488
v 0.00000 0.99500 -0.26800
v -0.08282 0.99500 -0.25488
v -0.15753 0.99500 -0.21682
v -0.21682 0.99500 -0.15753
v -0.25488 0.99500 -0.08282
v -0.26800 0.99500 -0.00000
v -0.25488 0.99500 0.08282
v -0.21682 0.99500 0.15753
v -0.15753 0.99500 0.21682
v -0.08282 0.99500 0.25488
v 0.00000 0.88000 0.30200
v 0.09332 0.88000 0.28722
v 0.17751 0.88000 0.24432
v 0.24432 0.88000 0.17751
v 0.28722 0.88000 0.09332
v 0.30200 0.88000 0.00000
v 0.28722 0.88000 -0.09332
v 0.24432 0.88000 -0.17751
v 0.17751 0.88000 -0.24432
v 0.09332 0.88000 -0.28722
v 0.00000 0.88000 -0.30200
v -0.09332 0.88000 -0.28722
v -0.17751 0.88000 -0.24432
v -0.24432 0.88000 -0.17751
v -0.28722 0.88000 -0.09332
v -0.30200 0.88000 -0.00000
v -0.28722 0.88000 0.09332
v -0.24432 0.88000 0.17751
v -0.17751 0.88000 0.24432
v -0.09332 0.88000 0.28722
v 0.00000 0.73000 0.29500
v 0.09116 0.73000 0.28056
v 0.17340 0.73000 0.23866
v 0.23866 0.73000 0.17340
v 0.28056 0.73000 0.09116
v 0.29500 0.73000 0.00000
v 0.28056 0.73000 -0.09116
v 0.23866 0.73000 -0.17340
v 0.17340 0.73000 -0.23866
v 0.09116 0.73000 -0.28056
v 0.00000 0.73000 -0.29500
v -0.09116 0.73000 -0.28056
v -0.17340 0.73000 -0.23866
v -0.23866 0.73000 -0.17340
v -0.28056 0.73000 -0.09116
v -0.29500 0.73000 -0.00000
v -0.28056 0.73000 0.09116
v -0.23866 0.73000 0.17340
v -0.17340 0.73000 0.23866
v -0.09116 0.73000 0.28056
v 0.00000 0.60000 0.26200
v 0.08096 0.60000 0.24918
v 0.15400 0.60000 0.21196
v 0.21196 0.60000 0.15400
v 0.24918 0.60000 0.08096
v 0.26200 0.60000 0.00000
v 0.24918 0.60000 -0.08096
v 0.21196 0.60000 -0.15400
v 0.15400 0.60000 -0.21196
v 0.08096 0.60000 -0.24918
v 0.00000 0.60000 -0.26200
v -0.08096 0.60000 -0.24918
v -0.15400 0.60000 -0.21196
v -0.21196 0.60000 -0.15400
v -0.24918 0.60000 -0.08096
v -0.26200 0.60000 -0.00000
v -0.24918 0.60000 0.08096
v -0.21196 0.60000 0.15400
v -0.15400 0.60000 0.21196
v -0.08096 0.60000 0.24918
v 0.17970 0.54000 0.17970
v 0.22644 0.54000 0.11538
v 0.25101 0.54000 0.03976
v 0.25101 0.54000 -0.03976
v 0.22644 0.54000 -0.11538
v 0.17970 0.54000 -0.17970
v 0.11538 0.54000 -0.22644
v 0.03976 0.54000 -0.25101
v -0.03976 0.54000 -0.25101
v -0.11538 0.54000 -0.22644
v -0.17970 0.54000 -0.17970
v -0.22644 0.54000 -0.11538
v -0.25101 0.54000 -0.03976
v -0.25101 0.54000 0.03976
v -0.22644 0.54000 0.11538
v -0.17970 0.54000 0.17970
v 0.00000 0.73000 0.32700
v -0.12959 0.78500 0.28176
v 0.12959 0.78500 0.28176
v 0.21000 0.66000 0.21000
v -0.21000 0.66000 0.21000
v -0.01430 1.15026 0.01000
v 0.01337 1.13768 0.02662
v 0.01593 1.14706 -0.00662
v 0.05000 1.31000 0.06000
v -0.18500 1.22000 -0.03000
v -0.18500 0.99000 -0.03000
v -0.18500 1.19804 0.03760
v -0.13215 1.19804 0.01214
v -0.11910 1.19804 -0.04504
v -0.15567 1.19804 -0.09090
v -0.21433 1.19804 -0.09090
v -0.25090 1.19804 -0.04504
v -0.23785 1.19804 0.01214
v -0.18500 1.14054 0.07937
v -0.09949 1.14054 0.03819
v -0.07837 1.14054 -0.05434
v -0.13755 1.14054 -0.12854
v -0.23245 1.14054 -0.12854
v -0.29163 1.14054 -0.05434
v -0.27051 1.14054 0.03819
v -0.18500 1.06946 0.07937
v -0.09949 1.06946 0.03819
v -0.07837 1.06946 -0.05434
v -0.13755 1.06946 -0.12854
v -0.23245 1.06946 -0.12854
v -0.29163 1.06946 -0.05434
v -0.27051 1.06946 0.03819
v -0.18500 1.01196 0.03760
v -0.13215 1.01196 0.01214
v -0.11910 1.01196 -0.04504
v -0.15567 1.01196 -0.09090
v -0.21433 1.01196 -0.09090
v -0.25090 1.01196 -0.04504
v -0.23785 1.01196 0.01214
v 0.18500 1.22000 -0.03000
v 0.18500 0.99000 -0.03000
v 0.18500 1.19804 0.03760
v 0.23785 1.19804 0.01214
v 0.25090 1.19804 -0.04504
v 0.21433 1.19804 -0.09090
v 0.15567 1.19804 -0.09090
v 0.11910 1.19804 -0.04504
v 0.13215 1.19804 0.01214
v 0.18500 1.14054 0.07937
v 0.27051 1.14054 0.03819
v 0.29163 1.14054 -0.05434
v 0.23245 1.14054 -0.12854
v 0.13755 1.14054 -0.12854
v 0.07837 1.14054 -0.05434
v 0.09949 1.14054 0.03819
v 0.18500 1.06946 0.07937
v 0.27051 1.06946 0.03819
v 0.29163 1.06946 -0.05434
v 0.23245 1.06946 -0.12854
v 0.13755 1.06946 -0.12854
v 0.07837 1.06946 -0.05434
v 0.09949 1.06946 0.03819
v 0.18500 1.01196 0.03760
v 0.23785 1.01196 0.01214
v 0.25090 1.01196 -0.04504
v 0.21433 1.01196 -0.09090
v 0.15567 1.01196 -0.09090
v 0.11910 1.01196 -0.04504
v 0.13215 1.01196 0.01214
v 0.00000 0.64500 0.00000
v 0.00000 0.64500 0.10000
v 0.05878 0.64500 0.08090
v 0.09511 0.64500 0.03090
v 0.09511 0.64500 -0.03090
v 0.05878 0.64500 -0.08090
v 0.00000 0.64500 -0.10000
v -0.05878 0.64500 -0.08090
v -0.09511 0.64500 -0.03090
v -0.09511 0.64500 0.03090
v -0.05878 0.64500 0.08090
v 0.00000 0.56000 0.14800
v 0.08699 0.56000 0.11973
v 0.14076 0.56000 0.04573
v 0.14076 0.56000 -0.04573
v 0.08699 0.56000 -0.11973
v 0.00000 0.56000 -0.14800
v -0.08699 0.56000 -0.11973
v -0.14076 0.56000 -0.04573
v -0.14076 0.56000 0.04573
v -0.08699 0.56000 0.11973
v 0.00000 0.42000 0.17800
v 0.10463 0.42000 0.14401
v 0.16929 0.42000 0.05501
v 0.16929 0.42000 -0.05501
v 0.10463 0.42000 -0.14401
v 0.00000 0.42000 -0.17800
v -0.10463 0.42000 -0.14401
v -0.16929 0.42000 -0.05501
v -0.16929 0.42000 0.05501
v -0.10463 0.42000 0.14401
v 0.00000 0.24000 0.21200
v 0.12461 0.24000 0.17151
v 0.20162 0.24000 0.06551
v 0.20162 0.24000 -0.06551
v 0.12461 0.24000 -0.17151
v 0.00000 0.24000 -0.21200
v -0.12461 0.24000 -0.17151
v -0.20162 0.24000 -0.06551
v -0.20162 0.24000 0.06551
v -0.12461 0.24000 0.17151
v 0.06551 0.20800 0.20162
v 0.17151 0.20800 0.12461
v 0.21200 0.20800 0.00000
v 0.17151 0.20800 -0.12461
v 0.06551 0.20800 -0.20162
v -0.06551 0.20800 -0.20162
v -0.17151 0.20800 -0.12461
v -0.21200 0.20800 -0.00000
v -0.17151 0.20800 0.12461
v -0.06551 0.20800 0.20162
v -0.02400 0.20966 0.00000
v -0.07798 0.21195 0.03113
v -0.07802 0.20839 -0.03113
v -0.06200 0.00000 0.01200
v 0.09600 0.21034 0.00000
v 0.04198 0.21161 0.03113
v 0.04202 0.20805 -0.03113
v 0.06200 0.00000 0.01200
o skin
f 1 3 4
f 2 102 101
f 1 4 5
f 2 103 102
f 1 5 6
f 2 104 103
f 1 6 7
f 2 105 104
f 1 7 8
f 2 106 105
f 1 8 9
f 2 107 106
f 1 9 10
f 2 108 107
f 1 10 11
f 2 109 108
f 1 11 12
f 2 110 109
f 1 12 13
f 2 111 110
f 1 13 14
f 2 112 111
f 1 14 15
f 2 113 112
f 1 15 16
f 2 114 113
f 1 16 3
f 2 101 114
f 3 17 18
f 3 18 4
f 4 18 19
f 4 19 5
f 5 19 20
f 5 20 6
f 6 20 21
f 6 21 7
f 7 21 22
f 7 22 8
f 8 22 23
f 8 23 9
f 9 23 24
f 9 24 10
f 10 24 25
f 10 25 11
f 11 25 26
f 11 26 12
f 12 26 27
f 12 27 13
f 13 27 28
f 13 28 14
f 14 28 29
f 14 29 15
f 15 29 30
f 15 30 16
f 16 30 17
f 16 17 3
f 17 31 32
f 17 32 18
f 18 32 33
f 18 33 19
f 19 33 34
f 19 34 20
f 20 34 35
f 20 35 21
f 21 35 36
f 21 36 22
f 22 36 37
f 22 37 23
f 23 37 38
f 23 38 24
f 24 38 39
f 24 39 25
f 25 39 40
f 25 40 26
f 26 40 41
f 26 41 27
f 27 41 42
f 27 42 28
f 28 42 43
f 28 43 29
f 29 43 44
f 29 44 30
f 30 44 31
f 30 31 17
f 31 45 46
f 31 46 32
f 32 46 47
f 32 47 33
f 33 47 48
f 33 48 34
f 34 48 49
f 34 49 35
f 35 49 50
f 35 50 36
f 36 50 51
f 36 51 37
f 37 51 52
f 37 52 38
f 38 52 53
f 38 53 39
f 39 53 54
f 39 54 40
f 40 54 55
f 40 55 41
f 41 55 56
f 41 56 42
f 42 56 57
f 42 57 43
f 43 57 58
f 43 58 44
f 44 58 45
f 44 45 31
f 45 59 60
f 45 60 46
f 46 60 61
f 46 61 47
f 47 61 62
f 47 62 48
f 48 62 63
f 48 63 49
f 49 63 64
f 49 64 50
f 50 64 65
f 50 65 51
f 51 65 66
f 51 66 52
f 52 66 67
f 52 67 53
f 53 67 68
f 53 68 54
f 54 68 69
f 54 69 55
f 55 69 70
f 55 70 56
f 56 70 71
f 56 71 57
f 57 71 72
f 57 72 58
f 58 72 59
f 58 59 45
f 59 73 74
f 59 74 60
f 60 74 75
f 60 75 61
f 61 75 76
f 61 76 62
f 62 76 77
f 62 77 63
f 63 77 78
f 63 78 64
f 64 78 79
f 64 79 65
f 65 79 80
f 65 80 66
f 66 80 81
f 66 81 67
f 67 81 82
f 67 82 68
f 68 82 83
f 68 83 69
f 69 83 84
f 69 84 70
f 70 84 85
f 70 85 71
f 71 85 86
f 71 86 72
f 72 86 73
f 72 73 59
f 73 87 88
f 73 88 74
f 74 88 89
f 74 89 75
f 75 89 90
f 75 90 76
f 76 90 91
f 76 91 77
f 77 91 92
f 77 92 78
f 78 92 93
f 78 93 79
f 79 93 94
f 79 94 80
f 80 94 95
f 80 95 81
f 81 95 96
f 81 96 82
f 82 96 97
f 82 97 83
f 83 97 98
f 83 98 84
f 84 98 99
f 84 99 85
f 85 99 100
f 85 100 86
f 86 100 87
f 86 87 73
f 87 101 102
f 87 102 88
f 88 102 103
f 88 103 89
f 89 103 104
f 89 104 90
f 90 104 105
f 90 105 91
f 91 105 106
f 91 106 92
f 92 106 107
f 92 107 93
f 93 107 108
f 93 108 94
f 94 108 109
f 94 109 95
f 95 109 110
f 95 110 96
f 96 110 111
f 96 111 97
f 97 111 112
f 97 112 98
f 98 112 113
f 98 113 99
f 99 113 114
f 99 114 100
f 100 114 101
f 100 101 87
o eye
f 115 116 117
f 115 117 118
f 127 128 129
f 127 129 130
o eyec
f 119 120 121
f 119 121 122
f 131 132 133
f 131 133 134
o eyew
f 123 124 125
f 123 125 126
f 135 136 137
f 135 137 138
o cheek
f 139 140 141
f 139 141 142
f 143 144 145
f 143 145 146
f 147 148 149
f 147 149 150
o armL
f 151 152 154
f 152 153 154
f 153 151 154
f 153 152 151
o armR
f 155 156 158
f 156 157 158
f 157 155 158
f 157 156 155
o hair
f 159 160 161
f 159 161 162
f 159 162 163
f 159 163 164
f 159 164 165
f 159 165 166
f 159 166 167
f 159 167 168
f 159 168 169
f 159 169 170
f 159 170 171
f 159 171 172
f 159 172 173
f 159 173 174
f 159 174 175
f 159 175 176
f 159 176 177
f 159 177 178
f 159 178 179
f 159 179 160
f 160 180 181
f 160 181 161
f 161 181 182
f 161 182 162
f 162 182 183
f 162 183 163
f 163 183 184
f 163 184 164
f 164 184 185
f 164 185 165
f 165 185 186
f 165 186 166
f 166 186 187
f 166 187 167
f 167 187 188
f 167 188 168
f 168 188 189
f 168 189 169
f 169 189 190
f 169 190 170
f 170 190 191
f 170 191 171
f 171 191 192
f 171 192 172
f 172 192 193
f 172 193 173
f 173 193 194
f 173 194 174
f 174 194 195
f 174 195 175
f 175 195 196
f 175 196 176
f 176 196 197
f 176 197 177
f 177 197 198
f 177 198 178
f 178 198 199
f 178 199 179
f 179 199 180
f 179 180 160
f 182 202 203
f 182 203 183
f 183 203 204
f 183 204 184
f 184 204 205
f 184 205 185
f 185 205 206
f 185 206 186
f 186 206 207
f 186 207 187
f 187 207 208
f 187 208 188
f 188 208 209
f 188 209 189
f 189 209 210
f 189 210 190
f 190 210 211
f 190 211 191
f 191 211 212
f 191 212 192
f 192 212 213
f 192 213 193
f 193 213 214
f 193 214 194
f 194 214 215
f 194 215 195
f 195 215 216
f 195 216 196
f 196 216 217
f 196 217 197
f 197 217 218
f 197 218 198
f 202 222 223
f 202 223 203
f 203 223 224
f 203 224 204
f 204 224 225
f 204 225 205
f 205 225 226
f 205 226 206
f 206 226 227
f 206 227 207
f 207 227 228
f 207 228 208
f 208 228 229
f 208 229 209
f 209 229 230
f 209 230 210
f 210 230 231
f 210 231 211
f 211 231 232
f 211 232 212
f 212 232 233
f 212 233 213
f 213 233 234
f 213 234 214
f 214 234 235
f 214 235 215
f 215 235 236
f 215 236 216
f 216 236 237
f 216 237 217
f 217 237 238
f 217 238 218
f 222 242 243
f 222 243 223
f 223 243 244
f 223 244 224
f 224 244 245
f 224 245 225
f 225 245 246
f 225 246 226
f 226 246 247
f 226 247 227
f 227 247 248
f 227 248 228
f 228 248 249
f 228 249 229
f 229 249 250
f 229 250 230
f 230 250 251
f 230 251 231
f 231 251 252
f 231 252 232
f 232 252 253
f 232 253 233
f 233 253 254
f 233 254 234
f 234 254 255
f 234 255 235
f 235 255 256
f 235 256 236
f 236 256 257
f 236 257 237
f 237 257 258
f 237 258 238
f 242 260 243
f 243 261 244
f 244 262 245
f 245 263 246
f 246 264 247
f 247 265 248
f 248 266 249
f 249 267 250
f 250 268 251
f 251 269 252
f 252 270 253
f 253 271 254
f 254 272 255
f 255 273 256
f 256 274 257
f 257 275 258
f 199 276 181
f 198 277 199
f 181 278 182
f 182 279 202
f 202 279 222
f 198 280 218
f 218 280 238
f 281 282 284
f 282 283 284
f 283 281 284
f 283 282 281
f 285 287 288
f 286 309 308
f 285 288 289
f 286 310 309
f 285 289 290
f 286 311 310
f 285 290 291
f 286 312 311
f 285 291 292
f 286 313 312
f 285 292 293
f 286 314 313
f 285 293 287
f 286 308 314
f 287 294 295
f 287 295 288
f 288 295 296
f 288 296 289
f 289 296 297
f 289 297 290
f 290 297 298
f 290 298 291
f 291 298 299
f 291 299 292
f 292 299 300
f 292 300 293
f 293 300 294
f 293 294 287
f 294 301 302
f 294 302 295
f 295 302 303
f 295 303 296
f 296 303 304
f 296 304 297
f 297 304 305
f 297 305 298
f 298 305 306
f 298 306 299
f 299 306 307
f 299 307 300
f 300 307 301
f 300 301 294
f 301 308 309
f 301 309 302
f 302 309 310
f 302 310 303
f 303 310 311
f 303 311 304
f 304 311 312
f 304 312 305
f 305 312 313
f 305 313 306
f 306 313 314
f 306 314 307
f 307 314 308
f 307 308 301
f 315 317 318
f 316 339 338
f 315 318 319
f 316 340 339
f 315 319 320
f 316 341 340
f 315 320 321
f 316 342 341
f 315 321 322
f 316 343 342
f 315 322 323
f 316 344 343
f 315 323 317
f 316 338 344
f 317 324 325
f 317 325 318
f 318 325 326
f 318 326 319
f 319 326 327
f 319 327 320
f 320 327 328
f 320 328 321
f 321 328 329
f 321 329 322
f 322 329 330
f 322 330 323
f 323 330 324
f 323 324 317
f 324 331 332
f 324 332 325
f 325 332 333
f 325 333 326
f 326 333 334
f 326 334 327
f 327 334 335
f 327 335 328
f 328 335 336
f 328 336 329
f 329 336 337
f 329 337 330
f 330 337 331
f 330 331 324
f 331 338 339
f 331 339 332
f 332 339 340
f 332 340 333
f 333 340 341
f 333 341 334
f 334 341 342
f 334 342 335
f 335 342 343
f 335 343 336
f 336 343 344
f 336 344 337
f 337 344 338
f 337 338 331
o cloth
f 345 346 347
f 345 347 348
f 345 348 349
f 345 349 350
f 345 350 351
f 345 351 352
f 345 352 353
f 345 353 354
f 345 354 355
f 345 355 346
f 346 356 357
f 346 357 347
f 347 357 358
f 347 358 348
f 348 358 359
f 348 359 349
f 349 359 360
f 349 360 350
f 350 360 361
f 350 361 351
f 351 361 362
f 351 362 352
f 352 362 363
f 352 363 353
f 353 363 364
f 353 364 354
f 354 364 365
f 354 365 355
f 355 365 356
f 355 356 346
f 356 366 367
f 356 367 357
f 357 367 368
f 357 368 358
f 358 368 369
f 358 369 359
f 359 369 370
f 359 370 360
f 360 370 371
f 360 371 361
f 361 371 372
f 361 372 362
f 362 372 373
f 362 373 363
f 363 373 374
f 363 374 364
f 364 374 375
f 364 375 365
f 365 375 366
f 365 366 356
f 366 376 377
f 366 377 367
f 367 377 378
f 367 378 368
f 368 378 379
f 368 379 369
f 369 379 380
f 369 380 370
f 370 380 381
f 370 381 371
f 371 381 382
f 371 382 372
f 372 382 383
f 372 383 373
f 373 383 384
f 373 384 374
f 374 384 385
f 374 385 375
f 375 385 376
f 375 376 366
f 376 386 377
f 377 387 378
f 378 388 379
f 379 389 380
f 380 390 381
f 381 391 382
f 382 392 383
f 383 393 384
f 384 394 385
f 385 395 376
o legL
f 396 397 399
f 397 398 399
f 398 396 399
f 398 397 396
o legR
f 400 401 403
f 401 402 403
f 402 400 403
f 402 401 400
