# VERSE CITY lowpoly avatar part (hair_bun) generated
v 0.00000 1.16000 0.00000
v 0.00000 1.10500 0.17500
v 0.05408 1.10500 0.16643
v 0.10286 1.10500 0.14158
v 0.14158 1.10500 0.10286
v 0.16643 1.10500 0.05408
v 0.17500 1.10500 0.00000
v 0.16643 1.10500 -0.05408
v 0.14158 1.10500 -0.10286
v 0.10286 1.10500 -0.14158
v 0.05408 1.10500 -0.16643
v 0.00000 1.10500 -0.17500
v -0.05408 1.10500 -0.16643
v -0.10286 1.10500 -0.14158
v -0.14158 1.10500 -0.10286
v -0.16643 1.10500 -0.05408
v -0.17500 1.10500 -0.00000
v -0.16643 1.10500 0.05408
v -0.14158 1.10500 0.10286
v -0.10286 1.10500 0.14158
v -0.05408 1.10500 0.16643
v 0.00000 0.99500 0.26800
v 0.08282 0.99500 0.25488
v 0.15753 0.99500 0.21682
v 0.21682 0.99500 0.15753
v 0.25488 0.99500 0.08282
v 0.26800 0.99500 0.00000
v 0.25488 0.99500 -0.08282
v 0.21682 0.99500 -0.15753
v 0.15753 0.99500 -0.21682
v 0.08282 0.99500 -0.25488
v 0.00000 0.99500 -0.26800
v -0.08282 0.99500 -0.25488
v -0.15753 0.99500 -0.21682
v -0.21682 0.99500 -0.15753
v -0.25488 0.99500 -0.08282
v -0.26800 0.99500 -0.00000
v -0.25488 0.99500 0.08282
v -0.21682 0.99500 0.15753
v -0.15753 0.99500 0.21682
v -0.08282 0.99500 0.25488
v 0.00000 0.88000 0.30200
v 0.09332 0.88000 0.28722
v 0.17751 0.88000 0.24432
v 0.24432 0.88000 0.17751
v 0.28722 0.88000 0.09332
v 0.30200 0.88000 0.00000
v 0.28722 0.88000 -0.09332
v 0.24432 0.88000 -0.17751
v 0.17751 0.88000 -0.24432
v 0.09332 0.88000 -0.28722
v 0.00000 0.88000 -0.30200
v -0.09332 0.88000 -0.28722
v -0.17751 0.88000 -0.24432
v -0.24432 0.88000 -0.17751
v -0.28722 0.88000 -0.09332
v -0.30200 0.88000 -0.00000
v -0.28722 0.88000 0.09332
v -0.24432 0.88000 0.17751
v -0.17751 0.88000 0.24432
v -0.09332 0.88000 0.28722
v 0.00000 0.73000 0.29500
v 0.09116 0.73000 0.28056
v 0.17340 0.73000 0.23866
v 0.23866 0.73000 0.17340
v 0.28056 0.73000 0.09116
v 0.29500 0.73000 0.00000
v 0.28056 0.73000 -0.09116
v 0.23866 0.73000 -0.17340
v 0.17340 0.73000 -0.23866
v 0.09116 0.73000 -0.28056
v 0.00000 0.73000 -0.29500
v -0.09116 0.73000 -0.28056
v -0.17340 0.73000 -0.23866
v -0.23866 0.73000 -0.17340
v -0.28056 0.73000 -0.09116
v -0.29500 0.73000 -0.00000
v -0.28056 0.73000 0.09116
v -0.23866 0.73000 0.17340
v -0.17340 0.73000 0.23866
v -0.09116 0.73000 0.28056
v 0.00000 0.60000 0.26200
v 0.08096 0.60000 0.24918
v 0.15400 0.60000 0.21196
v 0.21196 0.60000 0.15400
v 0.24918 0.60000 0.08096
v 0.26200 0.60000 0.00000
v 0.24918 0.60000 -0.08096
v 0.21196 0.60000 -0.15400
v 0.15400 0.60000 -0.21196
v 0.08096 0.60000 -0.24918
v 0.00000 0.60000 -0.26200
v -0.08096 0.60000 -0.24918
v -0.15400 0.60000 -0.21196
v -0.21196 0.60000 -0.15400
v -0.24918 0.60000 -0.08096
v -0.26200 0.60000 -0.00000
v -0.24918 0.60000 0.08096
v -0.21196 0.60000 0.15400
v -0.15400 0.60000 0.21196
v -0.08096 0.60000 0.24918
v 0.17970 0.54000 0.17970
v 0.22644 0.54000 0.11538
v 0.25101 0.54000 0.03976
v 0.25101 0.54000 -0.03976
v 0.22644 0.54000 -0.11538
v 0.17970 0.54000 -0.17970
v 0.11538 0.54000 -0.22644
v 0.03976 0.54000 -0.25101
v -0.03976 0.54000 -0.25101
v -0.11538 0.54000 -0.22644
v -0.17970 0.54000 -0.17970
v -0.22644 0.54000 -0.11538
v -0.25101 0.54000 -0.03976
v -0.25101 0.54000 0.03976
v -0.22644 0.54000 0.11538
v -0.17970 0.54000 0.17970
v 0.00000 0.73000 0.32700
v -0.12959 0.78500 0.28176
v 0.12959 0.78500 0.28176
v 0.21000 0.66000 0.21000
v -0.21000 0.66000 0.21000
v -0.18500 1.22000 -0.03000
v -0.18500 0.99000 -0.03000
v -0.18500 1.19804 0.03760
v -0.13215 1.19804 0.01214
v -0.11910 1.19804 -0.04504
v -0.15567 1.19804 -0.09090
v -0.21433 1.19804 -0.09090
v -0.25090 1.19804 -0.04504
v -0.23785 1.19804 0.01214
v -0.18500 1.14054 0.07937
v -0.09949 1.14054 0.03819
v -0.07837 1.14054 -0.05434
v -0.13755 1.14054 -0.12854
v -0.23245 1.14054 -0.12854
v -0.29163 1.14054 -0.05434
v -0.27051 1.14054 0.03819
v -0.18500 1.06946 0.07937
v -0.09949 1.06946 0.03819
v -0.07837 1.06946 -0.05434
v -0.13755 1.06946 -0.12854
v -0.23245 1.06946 -0.12854
v -0.29163 1.06946 -0.05434
v -0.27051 1.06946 0.03819
v -0.18500 1.01196 0.03760
v -0.13215 1.01196 0.01214
v -0.11910 1.01196 -0.04504
v -0.15567 1.01196 -0.09090
v -0.21433 1.01196 -0.09090
v -0.25090 1.01196 -0.04504
v -0.23785 1.01196 0.01214
v 0.18500 1.22000 -0.03000
v 0.18500 0.99000 -0.03000
v 0.18500 1.19804 0.03760
v 0.23785 1.19804 0.01214
v 0.25090 1.19804 -0.04504
v 0.21433 1.19804 -0.09090
v 0.15567 1.19804 -0.09090
v 0.11910 1.19804 -0.04504
v 0.13215 1.19804 0.01214
v 0.18500 1.14054 0.07937
v 0.27051 1.14054 0.03819
v 0.29163 1.14054 -0.05434
v 0.23245 1.14054 -0.12854
v 0.13755 1.14054 -0.12854
v 0.07837 1.14054 -0.05434
v 0.09949 1.14054 0.03819
v 0.18500 1.06946 0.07937
v 0.27051 1.06946 0.03819
v 0.29163 1.06946 -0.05434
v 0.23245 1.06946 -0.12854
v 0.13755 1.06946 -0.12854
v 0.07837 1.06946 -0.05434
v 0.09949 1.06946 0.03819
v 0.18500 1.01196 0.03760
v 0.23785 1.01196 0.01214
v 0.25090 1.01196 -0.04504
v 0.21433 1.01196 -0.09090
v 0.15567 1.01196 -0.09090
v 0.11910 1.01196 -0.04504
v 0.13215 1.01196 0.01214
o hair
f 1 2 3
f 1 3 4
f 1 4 5
f 1 5 6
f 1 6 7
f 1 7 8
f 1 8 9
f 1 9 10
f 1 10 11
f 1 11 12
f 1 12 13
f 1 13 14
f 1 14 15
f 1 15 16
f 1 16 17
f 1 17 18
f 1 18 19
f 1 19 20
f 1 20 21
f 1 21 2
f 2 22 23
f 2 23 3
f 3 23 24
f 3 24 4
f 4 24 25
f 4 25 5
f 5 25 26
f 5 26 6
f 6 26 27
f 6 27 7
f 7 27 28
f 7 28 8
f 8 28 29
f 8 29 9
f 9 29 30
f 9 30 10
f 10 30 31
f 10 31 11
f 11 31 32
f 11 32 12
f 12 32 33
f 12 33 13
f 13 33 34
f 13 34 14
f 14 34 35
f 14 35 15
f 15 35 36
f 15 36 16
f 16 36 37
f 16 37 17
f 17 37 38
f 17 38 18
f 18 38 39
f 18 39 19
f 19 39 40
f 19 40 20
f 20 40 41
f 20 41 21
f 21 41 22
f 21 22 2
f 24 44 45
f 24 45 25
f 25 45 46
f 25 46 26
f 26 46 47
f 26 47 27
f 27 47 48
f 27 48 28
f 28 48 49
f 28 49 29
f 29 49 50
f 29 50 30
f 30 50 51
f 30 51 31
f 31 51 52
f 31 52 32
f 32 52 53
f 32 53 33
f 33 53 54
f 33 54 34
f 34 54 55
f 34 55 35
f 35 55 56
f 35 56 36
f 36 56 57
f 36 57 37
f 37 57 58
f 37 58 38
f 38 58 59
f 38 59 39
f 39 59 60
f 39 60 40
f 44 64 65
f 44 65 45
f 45 65 66
f 45 66 46
f 46 66 67
f 46 67 47
f 47 67 68
f 47 68 48
f 48 68 69
f 48 69 49
f 49 69 70
f 49 70 50
f 50 70 71
f 50 71 51
f 51 71 72
f 51 72 52
f 52 72 73
f 52 73 53
f 53 73 74
f 53 74 54
f 54 74 75
f 54 75 55
f 55 75 76
f 55 76 56
f 56 76 77
f 56 77 57
f 57 77 78
f 57 78 58
f 58 78 79
f 58 79 59
f 59 79 80
f 59 80 60
f 64 84 85
f 64 85 65
f 65 85 86
f 65 86 66
f 66 86 87
f 66 87 67
f 67 87 88
f 67 88 68
f 68 88 89
f 68 89 69
f 69 89 90
f 69 90 70
f 70 90 91
f 70 91 71
f 71 91 92
f 71 92 72
f 72 92 93
f 72 93 73
f 73 93 94
f 73 94 74
f 74 94 95
f 74 95 75
f 75 95 96
f 75 96 76
f 76 96 97
f 76 97 77
f 77 97 98
f 77 98 78
f 78 98 99
f 78 99 79
f 79 99 100
f 79 100 80
f 84 102 85
f 85 103 86
f 86 104 87
f 87 105 88
f 88 106 89
f 89 107 90
f 90 108 91
f 91 109 92
f 92 110 93
f 93 111 94
f 94 112 95
f 95 113 96
f 96 114 97
f 97 115 98
f 98 116 99
f 99 117 100
f 41 118 23
f 40 119 41
f 23 120 24
f 24 121 44
f 44 121 64
f 40 122 60
f 60 122 80
f 123 125 126
f 124 147 146
f 123 126 127
f 124 148 147
f 123 127 128
f 124 149 148
f 123 128 129
f 124 150 149
f 123 129 130
f 124 151 150
f 123 130 131
f 124 152 151
f 123 131 125
f 124 146 152
f 125 132 133
f 125 133 126
f 126 133 134
f 126 134 127
f 127 134 135
f 127 135 128
f 128 135 136
f 128 136 129
f 129 136 137
f 129 137 130
f 130 137 138
f 130 138 131
f 131 138 132
f 131 132 125
f 132 139 140
f 132 140 133
f 133 140 141
f 133 141 134
f 134 141 142
f 134 142 135
f 135 142 143
f 135 143 136
f 136 143 144
f 136 144 137
f 137 144 145
f 137 145 138
f 138 145 139
f 138 139 132
f 139 146 147
f 139 147 140
f 140 147 148
f 140 148 141
f 141 148 149
f 141 149 142
f 142 149 150
f 142 150 143
f 143 150 151
f 143 151 144
f 144 151 152
f 144 152 145
f 145 152 146
f 145 146 139
f 153 155 156
f 154 177 176
f 153 156 157
f 154 178 177
f 153 157 158
f 154 179 178
f 153 158 159
f 154 180 179
f 153 159 160
f 154 181 180
f 153 160 161
f 154 182 181
f 153 161 155
f 154 176 182
f 155 162 163
f 155 163 156
f 156 163 164
f 156 164 157
f 157 164 165
f 157 165 158
f 158 165 166
f 158 166 159
f 159 166 167
f 159 167 160
f 160 167 168
f 160 168 161
f 161 168 162
f 161 162 155
f 162 169 170
f 162 170 163
f 163 170 171
f 163 171 164
f 164 171 172
f 164 172 165
f 165 172 173
f 165 173 166
f 166 173 174
f 166 174 167
f 167 174 175
f 167 175 168
f 168 175 169
f 168 169 162
f 169 176 177
f 169 177 170
f 170 177 178
f 170 178 171
f 171 178 179
f 171 179 172
f 172 179 180
f 172 180 173
f 173 180 181
f 173 181 174
f 174 181 182
f 174 182 175
f 175 182 176
f 175 176 169
