# VERSE CITY lowpoly avatar part (hair_pony) generated
v 0.00000 1.16000 0.00000
v 0.00000 1.10500 0.17500
v 0.05408 1.10500 0.16643
v 0.10286 1.10500 0.14158
v 0.14158 1.10500 0.10286
v 0.16643 1.10500 0.05408
v 0.17500 1.10500 0.00000
v 0.16643 1.10500 -0.05408
v 0.14158 1.10500 -0.10286
v 0.10286 1.10500 -0.14158
v 0.05408 1.10500 -0.16643
v 0.00000 1.10500 -0.17500
v -0.05408 1.10500 -0.16643
v -0.10286 1.10500 -0.14158
v -0.14158 1.10500 -0.10286
v -0.16643 1.10500 -0.05408
v -0.17500 1.10500 -0.00000
v -0.16643 1.10500 0.05408
v -0.14158 1.10500 0.10286
v -0.10286 1.10500 0.14158
v -0.05408 1.10500 0.16643
v 0.00000 0.99500 0.26800
v 0.08282 0.99500 0.25488
v 0.15753 0.99500 0.21682
v 0.21682 0.99500 0.15753
v 0.25488 0.99500 0.08282
v 0.26800 0.99500 0.00000
v 0.25488 0.99500 -0.08282
v 0.21682 0.99500 -0.15753
v 0.15753 0.99500 -0.21682
v 0.08282 0.99500 -0.25488
v 0.00000 0.99500 -0.26800
v -0.08282 0.99500 -0.25488
v -0.15753 0.99500 -0.21682
v -0.21682 0.99500 -0.15753
v -0.25488 0.99500 -0.08282
v -0.26800 0.99500 -0.00000
v -0.25488 0.99500 0.08282
v -0.21682 0.99500 0.15753
v -0.15753 0.99500 0.21682
v -0.08282 0.99500 0.25488
v 0.00000 0.88000 0.30200
v 0.09332 0.88000 0.28722
v 0.17751 0.88000 0.24432
v 0.24432 0.88000 0.17751
v 0.28722 0.88000 0.09332
v 0.30200 0.88000 0.00000
v 0.28722 0.88000 -0.09332
v 0.24432 0.88000 -0.17751
v 0.17751 0.88000 -0.24432
v 0.09332 0.88000 -0.28722
v 0.00000 0.88000 -0.30200
v -0.09332 0.88000 -0.28722
v -0.17751 0.88000 -0.24432
v -0.24432 0.88000 -0.17751
v -0.28722 0.88000 -0.09332
v -0.30200 0.88000 -0.00000
v -0.28722 0.88000 0.09332
v -0.24432 0.88000 0.17751
v -0.17751 0.88000 0.24432
v -0.09332 0.88000 0.28722
v 0.00000 0.73000 0.29500
v 0.09116 0.73000 0.28056
v 0.17340 0.73000 0.23866
v 0.23866 0.73000 0.17340
v 0.28056 0.73000 0.09116
v 0.29500 0.73000 0.00000
v 0.28056 0.73000 -0.09116
v 0.23866 0.73000 -0.17340
v 0.17340 0.73000 -0.23866
v 0.09116 0.73000 -0.28056
v 0.00000 0.73000 -0.29500
v -0.09116 0.73000 -0.28056
v -0.17340 0.73000 -0.23866
v -0.23866 0.73000 -0.17340
v -0.28056 0.73000 -0.09116
v -0.29500 0.73000 -0.00000
v -0.28056 0.73000 0.09116
v -0.23866 0.73000 0.17340
v -0.17340 0.73000 0.23866
v -0.09116 0.73000 0.28056
v 0.00000 0.60000 0.26200
v 0.08096 0.60000 0.24918
v 0.15400 0.60000 0.21196
v 0.21196 0.60000 0.15400
v 0.24918 0.60000 0.08096
v 0.26200 0.60000 0.00000
v 0.24918 0.60000 -0.08096
v 0.21196 0.60000 -0.15400
v 0.15400 0.60000 -0.21196
v 0.08096 0.60000 -0.24918
v 0.00000 0.60000 -0.26200
v -0.08096 0.60000 -0.24918
v -0.15400 0.60000 -0.21196
v -0.21196 0.60000 -0.15400
v -0.24918 0.60000 -0.08096
v -0.26200 0.60000 -0.00000
v -0.24918 0.60000 0.08096
v -0.21196 0.60000 0.15400
v -0.15400 0.60000 0.21196
v -0.08096 0.60000 0.24918
v 0.17970 0.54000 0.17970
v 0.22644 0.54000 0.11538
v 0.25101 0.54000 0.03976
v 0.25101 0.54000 -0.03976
v 0.22644 0.54000 -0.11538
v 0.17970 0.54000 -0.17970
v 0.11538 0.54000 -0.22644
v 0.03976 0.54000 -0.25101
v -0.03976 0.54000 -0.25101
v -0.11538 0.54000 -0.22644
v -0.17970 0.54000 -0.17970
v -0.22644 0.54000 -0.11538
v -0.25101 0.54000 -0.03976
v -0.25101 0.54000 0.03976
v -0.22644 0.54000 0.11538
v -0.17970 0.54000 0.17970
v 0.00000 0.73000 0.32700
v -0.12959 0.78500 0.28176
v 0.12959 0.78500 0.28176
v 0.21000 0.66000 0.21000
v -0.21000 0.66000 0.21000
v 0.00000 1.06000 -0.28000
v 0.00000 0.92000 -0.28000
v 0.00000 1.03950 -0.23050
v 0.04287 1.03950 -0.25525
v 0.04287 1.03950 -0.30475
v 0.00000 1.03950 -0.32950
v -0.04287 1.03950 -0.30475
v -0.04287 1.03950 -0.25525
v 0.00000 0.99000 -0.21000
v 0.06062 0.99000 -0.24500
v 0.06062 0.99000 -0.31500
v 0.00000 0.99000 -0.35000
v -0.06062 0.99000 -0.31500
v -0.06062 0.99000 -0.24500
v 0.00000 0.94050 -0.23050
v 0.04287 0.94050 -0.25525
v 0.04287 0.94050 -0.30475
v 0.00000 0.94050 -0.32950
v -0.04287 0.94050 -0.30475
v -0.04287 0.94050 -0.25525
v 0.11000 0.96000 -0.31000
v -0.05500 0.94539 -0.21586
v -0.05500 0.97461 -0.40414
v 0.00000 0.38000 -0.40000
o hair
f 1 2 3
f 1 3 4
f 1 4 5
f 1 5 6
f 1 6 7
f 1 7 8
f 1 8 9
f 1 9 10
f 1 10 11
f 1 11 12
f 1 12 13
f 1 13 14
f 1 14 15
f 1 15 16
f 1 16 17
f 1 17 18
f 1 18 19
f 1 19 20
f 1 20 21
f 1 21 2
f 2 22 23
f 2 23 3
f 3 23 24
f 3 24 4
f 4 24 25
f 4 25 5
f 5 25 26
f 5 26 6
f 6 26 27
f 6 27 7
f 7 27 28
f 7 28 8
f 8 28 29
f 8 29 9
f 9 29 30
f 9 30 10
f 10 30 31
f 10 31 11
f 11 31 32
f 11 32 12
f 12 32 33
f 12 33 13
f 13 33 34
f 13 34 14
f 14 34 35
f 14 35 15
f 15 35 36
f 15 36 16
f 16 36 37
f 16 37 17
f 17 37 38
f 17 38 18
f 18 38 39
f 18 39 19
f 19 39 40
f 19 40 20
f 20 40 41
f 20 41 21
f 21 41 22
f 21 22 2
f 24 44 45
f 24 45 25
f 25 45 46
f 25 46 26
f 26 46 47
f 26 47 27
f 27 47 48
f 27 48 28
f 28 48 49
f 28 49 29
f 29 49 50
f 29 50 30
f 30 50 51
f 30 51 31
f 31 51 52
f 31 52 32
f 32 52 53
f 32 53 33
f 33 53 54
f 33 54 34
f 34 54 55
f 34 55 35
f 35 55 56
f 35 56 36
f 36 56 57
f 36 57 37
f 37 57 58
f 37 58 38
f 38 58 59
f 38 59 39
f 39 59 60
f 39 60 40
f 44 64 65
f 44 65 45
f 45 65 66
f 45 66 46
f 46 66 67
f 46 67 47
f 47 67 68
f 47 68 48
f 48 68 69
f 48 69 49
f 49 69 70
f 49 70 50
f 50 70 71
f 50 71 51
f 51 71 72
f 51 72 52
f 52 72 73
f 52 73 53
f 53 73 74
f 53 74 54
f 54 74 75
f 54 75 55
f 55 75 76
f 55 76 56
f 56 76 77
f 56 77 57
f 57 77 78
f 57 78 58
f 58 78 79
f 58 79 59
f 59 79 80
f 59 80 60
f 64 84 85
f 64 85 65
f 65 85 86
f 65 86 66
f 66 86 87
f 66 87 67
f 67 87 88
f 67 88 68
f 68 88 89
f 68 89 69
f 69 89 90
f 69 90 70
f 70 90 91
f 70 91 71
f 71 91 92
f 71 92 72
f 72 92 93
f 72 93 73
f 73 93 94
f 73 94 74
f 74 94 95
f 74 95 75
f 75 95 96
f 75 96 76
f 76 96 97
f 76 97 77
f 77 97 98
f 77 98 78
f 78 98 99
f 78 99 79
f 79 99 100
f 79 100 80
f 84 102 85
f 85 103 86
f 86 104 87
f 87 105 88
f 88 106 89
f 89 107 90
f 90 108 91
f 91 109 92
f 92 110 93
f 93 111 94
f 94 112 95
f 95 113 96
f 96 114 97
f 97 115 98
f 98 116 99
f 99 117 100
f 41 118 23
f 40 119 41
f 23 120 24
f 24 121 44
f 44 121 64
f 40 122 60
f 60 122 80
f 123 125 126
f 124 138 137
f 123 126 127
f 124 139 138
f 123 127 128
f 124 140 139
f 123 128 129
f 124 141 140
f 123 129 130
f 124 142 141
f 123 130 125
f 124 137 142
f 125 131 132
f 125 132 126
f 126 132 133
f 126 133 127
f 127 133 134
f 127 134 128
f 128 134 135
f 128 135 129
f 129 135 136
f 129 136 130
f 130 136 131
f 130 131 125
f 131 137 138
f 131 138 132
f 132 138 139
f 132 139 133
f 133 139 140
f 133 140 134
f 134 140 141
f 134 141 135
f 135 141 142
f 135 142 136
f 136 142 137
f 136 137 131
f 143 144 146
f 144 145 146
f 145 143 146
f 145 144 143
